<svg xmlns="http://www.w3.org/2000/svg" xmlns:xlink="http://www.w3.org/1999/xlink" viewBox="0 0 1280 1077"><defs><style>.cls-1,.cls-10,.cls-11,.cls-12,.cls-13,.cls-14,.cls-4{fill:none;}.cls-2{fill:#231f20;}.cls-3{fill:#aedbc4;}.cls-12,.cls-4{stroke:#4800ff;}.cls-10,.cls-11,.cls-12,.cls-13,.cls-14,.cls-4{stroke-miterlimit:10;}.cls-4{stroke-width:0.5px;}.cls-5{fill:#ffe9e4;}.cls-6{fill:url(#Stipple_Fine);}.cls-7{fill:#d5cad7;}.cls-8{fill:#b4c8ff;}.cls-9{fill:#807b85;}.cls-10,.cls-11{stroke:#fff;stroke-width:6px;}.cls-11{stroke-linecap:round;}.cls-12{stroke-width:13px;}.cls-13,.cls-14{stroke:#000;stroke-width:11px;}.cls-14{stroke-dasharray:1 4;}.cls-15{fill:#4800ff;}.cls-16{fill:#fff;}.cls-17{fill:#d55ca2;}.cls-18{fill:#daf1fc;}</style><pattern id="Stipple_Fine" data-name="Stipple Fine" width="72" height="72" patternUnits="userSpaceOnUse" viewBox="0 0 72 72"><rect class="cls-1" width="72" height="72"/><path class="cls-2" d="M56.43,72.69a.35.35,0,0,1-.26-.11.39.39,0,0,1-.11-.27.36.36,0,0,1,.11-.26.4.4,0,0,1,.53,0,.36.36,0,0,1,.11.26.39.39,0,0,1-.11.27A.37.37,0,0,1,56.43,72.69Z"/><path class="cls-2" d="M3.75,72.13A.36.36,0,0,1,3.48,72a.35.35,0,0,1-.11-.26.36.36,0,0,1,.11-.26.39.39,0,0,1,.53,0,.36.36,0,0,1,.11.26A.39.39,0,0,1,4,72,.36.36,0,0,1,3.75,72.13Z"/><path class="cls-2" d="M18.56,72.13a.36.36,0,0,1-.27-.12.36.36,0,0,1-.11-.26.34.34,0,0,1,.12-.26.38.38,0,0,1,.53,0,.4.4,0,0,1,.1.26.39.39,0,0,1-.1.27A.4.4,0,0,1,18.56,72.13Z"/><path class="cls-2" d="M40.31,72.31A.35.35,0,0,1,40,72.2a.34.34,0,0,1-.1-.26.35.35,0,0,1,.1-.26.39.39,0,0,1,.54,0,.38.38,0,0,1,.1.27.39.39,0,0,1-.11.27A.34.34,0,0,1,40.31,72.31Z"/><path class="cls-2" d="M12.93,69.88a.32.32,0,0,1-.26-.12.35.35,0,0,1-.11-.26.39.39,0,0,1,.11-.27.4.4,0,0,1,.53,0,.35.35,0,0,1,.11.26.39.39,0,0,1-.11.27A.37.37,0,0,1,12.93,69.88Z"/><path class="cls-2" d="M1.12,69.69a.39.39,0,0,1-.27-.11.42.42,0,0,1-.1-.26.39.39,0,0,1,.11-.27.4.4,0,0,1,.53,0,.39.39,0,0,1,.11.27.38.38,0,0,1-.11.26A.39.39,0,0,1,1.12,69.69Z"/><path class="cls-2" d="M10.5,68.38a.36.36,0,0,1-.27-.12.39.39,0,0,1-.11-.26.36.36,0,0,1,.11-.26.39.39,0,0,1,.53,0,.36.36,0,0,1,.11.26.39.39,0,0,1-.11.27A.36.36,0,0,1,10.5,68.38Z"/><path class="cls-2" d="M19.68,67.25a.38.38,0,0,1-.26-.11.36.36,0,0,1-.11-.26.37.37,0,0,1,.11-.27.38.38,0,0,1,.64.27.36.36,0,0,1-.11.26A.39.39,0,0,1,19.68,67.25Z"/><path class="cls-2" d="M3.75,72.13A.36.36,0,0,1,3.48,72a.39.39,0,0,1-.11-.26.36.36,0,0,1,.11-.26.4.4,0,0,1,.53,0,.33.33,0,0,1,.11.26A.39.39,0,0,1,4,72,.36.36,0,0,1,3.75,72.13Z"/><path class="cls-2" d="M7.12,65.75a.39.39,0,0,1-.27-.11.4.4,0,0,1-.1-.26.37.37,0,0,1,.11-.27.4.4,0,0,1,.53,0,.37.37,0,0,1,.11.27.36.36,0,0,1-.11.26A.39.39,0,0,1,7.12,65.75Z"/><path class="cls-2" d="M24.56,70.63a.36.36,0,0,1-.27-.12.34.34,0,0,1-.1-.26A.33.33,0,0,1,24.3,70a.39.39,0,0,1,.53,0,.36.36,0,0,1,.11.26.38.38,0,0,1-.38.38Z"/><path class="cls-2" d="M27,71.94a.34.34,0,0,1-.27-.12.33.33,0,0,1-.11-.25.34.34,0,0,1,.12-.27.38.38,0,0,1,.52,0,.35.35,0,0,1,.11.27.38.38,0,0,1-.11.26A.36.36,0,0,1,27,71.94Z"/><path class="cls-2" d="M29.06,67.63a.4.4,0,0,1-.27-.12.38.38,0,0,1-.1-.26A.36.36,0,0,1,28.8,67a.38.38,0,0,1,.53,0,.4.4,0,0,1,.1.26.38.38,0,0,1-.1.27A.39.39,0,0,1,29.06,67.63Z"/><path class="cls-2" d="M40.87,66.69a.36.36,0,0,1-.26-.11.37.37,0,0,1-.11-.27.36.36,0,0,1,.11-.26.39.39,0,0,1,.53,0,.38.38,0,0,1,.11.26.38.38,0,0,1-.38.38Z"/><path class="cls-2" d="M49.31,68a.39.39,0,0,1-.27-.11.41.41,0,0,1-.11-.26.4.4,0,0,1,.12-.27.38.38,0,0,1,.52,0,.36.36,0,0,1,.12.27.38.38,0,0,1-.11.26A.39.39,0,0,1,49.31,68Z"/><path class="cls-2" d="M35.06,66.13a.39.39,0,0,1-.27-.11.41.41,0,0,1-.1-.27.39.39,0,0,1,.11-.27.4.4,0,0,1,.53,0,.39.39,0,0,1,.11.26.4.4,0,0,1-.12.27A.35.35,0,0,1,35.06,66.13Z"/><path class="cls-2" d="M24.56,66.13a.36.36,0,0,1-.27-.12.34.34,0,0,1-.1-.26.39.39,0,0,1,.11-.27.4.4,0,0,1,.53,0,.38.38,0,0,1-.27.64Z"/><path class="cls-2" d="M15.18,66.13a.34.34,0,0,1-.26-.12.35.35,0,0,1-.11-.26.36.36,0,0,1,.11-.26.38.38,0,0,1,.53,0,.36.36,0,0,1,.11.26.38.38,0,0,1-.38.38Z"/><path class="cls-2" d="M43.87,63.5a.38.38,0,0,1-.26-.11.35.35,0,0,1-.11-.26.37.37,0,0,1,.11-.27.38.38,0,0,1,.64.27.32.32,0,0,1-.12.26A.35.35,0,0,1,43.87,63.5Z"/><path class="cls-2" d="M46.68,71.75a.38.38,0,0,1-.37-.37.38.38,0,1,1,.75,0,.36.36,0,0,1-.11.26A.37.37,0,0,1,46.68,71.75Z"/><path class="cls-2" d="M18.56,72.13a.36.36,0,0,1-.27-.12.39.39,0,0,1-.11-.26.34.34,0,0,1,.12-.26.38.38,0,0,1,.53,0,.4.4,0,0,1,.1.26.39.39,0,0,1-.11.27A.36.36,0,0,1,18.56,72.13Z"/><path class="cls-2" d="M32.43,70.82a.38.38,0,0,1-.26-.11.39.39,0,0,1-.11-.27.36.36,0,0,1,.11-.26.39.39,0,0,1,.53,0,.4.4,0,0,1,.11.27.38.38,0,0,1-.38.38Z"/><path class="cls-2" d="M40.31,72.32A.4.4,0,0,1,40,72.2a.38.38,0,0,1-.1-.26.37.37,0,0,1,.64-.26.38.38,0,0,1,.1.26.38.38,0,0,1-.37.38Z"/><path class="cls-2" d="M50.62,48.5a.38.38,0,0,1-.37-.37.38.38,0,1,1,.75,0,.35.35,0,0,1-.11.26A.39.39,0,0,1,50.62,48.5Z"/><path class="cls-2" d="M58.31,48.13A.36.36,0,0,1,58,48a.39.39,0,0,1-.11-.26.34.34,0,0,1,.12-.26.39.39,0,0,1,.53,0,.36.36,0,0,1,.11.26.4.4,0,0,1-.12.27A.36.36,0,0,1,58.31,48.13Z"/><path class="cls-2" d="M62.81,48.69a.39.39,0,0,1-.27-.11.38.38,0,0,1-.11-.26.39.39,0,0,1,.11-.27.4.4,0,0,1,.54,0,.39.39,0,0,1,.11.27.38.38,0,0,1-.11.26A.39.39,0,0,1,62.81,48.69Z"/><path class="cls-2" d="M66.93,71a.35.35,0,0,1-.26-.11.36.36,0,0,1-.11-.26.39.39,0,0,1,.11-.27.4.4,0,0,1,.53,0,.37.37,0,0,1,.11.27.36.36,0,0,1-.11.26A.37.37,0,0,1,66.93,71Z"/><path class="cls-2" d="M52.31,61.25a.39.39,0,0,1-.27-.11.36.36,0,0,1-.11-.26.39.39,0,0,1,.11-.27.4.4,0,0,1,.54,0,.38.38,0,0,1,.1.27.35.35,0,0,1-.1.26A.39.39,0,0,1,52.31,61.25Z"/><path class="cls-2" d="M70.5,55.25a.39.39,0,0,1-.27-.11.36.36,0,0,1-.11-.26.34.34,0,0,1,.12-.27.39.39,0,0,1,.53,0,.38.38,0,0,1,.1.26.38.38,0,0,1-.37.37Z"/><path class="cls-2" d="M71.06,68.38a.4.4,0,0,1-.27-.12.38.38,0,0,1-.1-.26.39.39,0,0,1,.11-.27.4.4,0,0,1,.53,0,.38.38,0,0,1-.27.64Z"/><path class="cls-2" d="M63.94,53.19a.37.37,0,0,1-.27-.11.35.35,0,0,1-.11-.26.38.38,0,0,1,.64-.27.37.37,0,0,1,.11.27.38.38,0,0,1-.37.37Z"/><path class="cls-2" d="M61.87,71.94a.39.39,0,0,1-.27-.11.4.4,0,0,1-.1-.26.39.39,0,0,1,.11-.27.4.4,0,0,1,.53,0,.39.39,0,0,1,.11.27.34.34,0,0,1-.12.26A.35.35,0,0,1,61.87,71.94Z"/><path class="cls-2" d="M53.62,52.82a.37.37,0,0,1-.26-.12.35.35,0,0,1-.11-.26.39.39,0,0,1,.11-.27.4.4,0,0,1,.53,0,.39.39,0,0,1,.11.27.4.4,0,0,1-.11.27A.44.44,0,0,1,53.62,52.82Z"/><path class="cls-2" d="M51.75,67.07a.4.4,0,0,1-.27-.12.35.35,0,0,1-.11-.26.4.4,0,0,1,.11-.27.39.39,0,0,1,.53,0,.36.36,0,0,1,.11.26A.39.39,0,0,1,52,67,.41.41,0,0,1,51.75,67.07Z"/><path class="cls-2" d="M57.37,55.44a.35.35,0,0,1-.26-.11.36.36,0,0,1-.11-.26.39.39,0,0,1,.11-.27.4.4,0,0,1,.53,0,.39.39,0,0,1,.11.27.38.38,0,0,1-.11.26A.39.39,0,0,1,57.37,55.44Z"/><path class="cls-2" d="M60.94,56.19a.37.37,0,0,1-.27-.11.36.36,0,0,1-.11-.26.35.35,0,0,1,.11-.27.4.4,0,0,1,.53,0,.37.37,0,0,1,.11.27.38.38,0,0,1-.11.26A.36.36,0,0,1,60.94,56.19Z"/><path class="cls-2" d="M56.43,69.69a.38.38,0,0,1-.37-.37.38.38,0,1,1,.75,0,.38.38,0,0,1-.11.26A.4.4,0,0,1,56.43,69.69Z"/><path class="cls-2" d="M61.31,63.5a.39.39,0,0,1-.27-.11.38.38,0,0,1-.11-.26.36.36,0,0,1,.12-.27.38.38,0,0,1,.52,0,.36.36,0,0,1,.12.27.38.38,0,0,1-.11.26A.39.39,0,0,1,61.31,63.5Z"/><path class="cls-2" d="M57.94,61.82a.38.38,0,0,1-.27-.12.36.36,0,0,1-.11-.26.4.4,0,0,1,.11-.27.38.38,0,0,1,.52,0,.37.37,0,0,1,.12.27.36.36,0,0,1-.11.26A.35.35,0,0,1,57.94,61.82Z"/><path class="cls-2" d="M67.12,65.19a.39.39,0,0,1-.27-.11.38.38,0,0,1-.1-.26.37.37,0,0,1,.11-.27.4.4,0,0,1,.53,0,.39.39,0,0,1,.11.27.34.34,0,0,1-.12.26A.35.35,0,0,1,67.12,65.19Z"/><path class="cls-2" d="M69.19,60.32a.38.38,0,0,1-.27-.12.35.35,0,0,1-.11-.26.37.37,0,0,1,.64-.26.35.35,0,0,1,.11.26.36.36,0,0,1-.12.27A.36.36,0,0,1,69.19,60.32Z"/><path class="cls-2" d="M65.06,59.19a.38.38,0,0,1-.38-.38.37.37,0,0,1,.12-.26.4.4,0,0,1,.53,0,.41.41,0,0,1,.11.26.38.38,0,0,1-.38.38Z"/><path class="cls-2" d="M1.69,56.94a.35.35,0,0,1-.27-.11.38.38,0,0,1-.11-.26.39.39,0,0,1,.11-.27.4.4,0,0,1,.53,0,.39.39,0,0,1,.11.27.38.38,0,0,1-.37.37Z"/><path class="cls-2" d="M29.25,62.75a.38.38,0,0,1-.38-.37.36.36,0,0,1,.12-.27.38.38,0,0,1,.52,0,.35.35,0,0,1,.11.27.39.39,0,0,1-.11.27A.4.4,0,0,1,29.25,62.75Z"/><path class="cls-2" d="M15.56,51.69a.39.39,0,0,1-.27-.11.36.36,0,0,1-.11-.26.36.36,0,0,1,.12-.27.38.38,0,0,1,.52,0,.39.39,0,0,1,.12.28.38.38,0,0,1-.11.26A.39.39,0,0,1,15.56,51.69Z"/><path class="cls-2" d="M4.87,61.25a.38.38,0,0,1-.37-.37.39.39,0,0,1,.11-.27.4.4,0,0,1,.53,0,.39.39,0,0,1,.11.27.36.36,0,0,1-.11.26A.39.39,0,0,1,4.87,61.25Z"/><path class="cls-2" d="M18.75,54.5a.39.39,0,0,1-.27-.11.35.35,0,0,1-.1-.26.43.43,0,0,1,.1-.27.4.4,0,0,1,.53,0,.39.39,0,0,1,.11.27.38.38,0,0,1-.11.26A.36.36,0,0,1,18.75,54.5Z"/><path class="cls-2" d="M9.75,51.13A.36.36,0,0,1,9.48,51a.35.35,0,0,1-.11-.26.4.4,0,0,1,.12-.27.38.38,0,0,1,.52,0,.36.36,0,0,1,.12.26A.4.4,0,0,1,10,51,.36.36,0,0,1,9.75,51.13Z"/><path class="cls-2" d="M18.56,48.5a.39.39,0,0,1-.27-.11.38.38,0,0,1-.11-.26.36.36,0,0,1,.12-.27.4.4,0,0,1,.53,0,.43.43,0,0,1,.1.27.4.4,0,0,1-.1.26A.4.4,0,0,1,18.56,48.5Z"/><path class="cls-2" d="M21.37,56.75a.39.39,0,0,1-.27-.11.42.42,0,0,1-.1-.26.39.39,0,0,1,.11-.27.4.4,0,0,1,.53,0,.39.39,0,0,1,.11.27.36.36,0,0,1-.11.26A.39.39,0,0,1,21.37,56.75Z"/><path class="cls-2" d="M20.62,60.32a.38.38,0,0,1-.37-.38.36.36,0,0,1,.11-.26.38.38,0,0,1,.53,0,.36.36,0,0,1,.11.26.4.4,0,0,1-.11.27A.39.39,0,0,1,20.62,60.32Z"/><path class="cls-2" d="M7.12,55.82a.38.38,0,0,1-.37-.38.37.37,0,0,1,.64-.26.35.35,0,0,1,.11.26.4.4,0,0,1-.11.27A.39.39,0,0,1,7.12,55.82Z"/><path class="cls-2" d="M13.31,60.69a.39.39,0,0,1-.27-.11.41.41,0,0,1-.11-.27.34.34,0,0,1,.12-.26.4.4,0,0,1,.53,0,.36.36,0,0,1,.11.26.38.38,0,0,1-.12.27A.35.35,0,0,1,13.31,60.69Z"/><path class="cls-2" d="M15,57.31a.39.39,0,0,1-.27-.11.36.36,0,0,1-.11-.26.4.4,0,0,1,.12-.27.37.37,0,0,1,.52,0,.35.35,0,0,1,.11.26.36.36,0,0,1-.11.27A.4.4,0,0,1,15,57.31Z"/><path class="cls-2" d="M30.18,50.19a.38.38,0,0,1-.26-.11.37.37,0,0,1-.11-.27.36.36,0,0,1,.11-.26.39.39,0,0,1,.53,0,.38.38,0,0,1,.11.26.38.38,0,0,1-.38.38Z"/><path class="cls-2" d="M36,57.69a.38.38,0,0,1-.38-.37.36.36,0,0,1,.12-.27.37.37,0,0,1,.52,0,.37.37,0,0,1,.11.27.35.35,0,0,1-.11.26A.36.36,0,0,1,36,57.69Z"/><path class="cls-2" d="M42.37,59.75a.38.38,0,0,1-.37-.37.37.37,0,0,1,.11-.27.38.38,0,0,1,.64.27.38.38,0,0,1-.11.26A.39.39,0,0,1,42.37,59.75Z"/><path class="cls-2" d="M46.68,53a.42.42,0,0,1-.26-.1.4.4,0,0,1-.11-.27.38.38,0,1,1,.75,0,.36.36,0,0,1-.11.26A.39.39,0,0,1,46.68,53Z"/><path class="cls-2" d="M46.87,59a.36.36,0,0,1-.26-.11.35.35,0,0,1-.11-.26.37.37,0,0,1,.11-.27.39.39,0,0,1,.53,0,.37.37,0,0,1,.11.27.32.32,0,0,1-.12.26A.35.35,0,0,1,46.87,59Z"/><path class="cls-2" d="M28.68,52.63a.38.38,0,0,1-.26-.11.37.37,0,0,1-.11-.27.36.36,0,0,1,.11-.26A.39.39,0,0,1,29,52a.36.36,0,0,1,.11.26.38.38,0,0,1-.38.38Z"/><path class="cls-2" d="M30.75,57.88a.38.38,0,0,1-.38-.38.36.36,0,0,1,.11-.26.39.39,0,0,1,.53,0,.38.38,0,0,1-.26.64Z"/><path class="cls-2" d="M26.06,56a.36.36,0,0,1-.26-.11.35.35,0,0,1-.11-.26.38.38,0,0,1,.1-.27.4.4,0,0,1,.54,0,.39.39,0,0,1,.11.27.36.36,0,0,1-.12.26A.35.35,0,0,1,26.06,56Z"/><path class="cls-2" d="M39.18,55.63a.36.36,0,0,1-.26-.11.39.39,0,0,1-.11-.27.36.36,0,0,1,.11-.26.39.39,0,0,1,.53,0,.36.36,0,0,1,.11.26.39.39,0,0,1-.11.27A.37.37,0,0,1,39.18,55.63Z"/><path class="cls-2" d="M42.93,49.82a.39.39,0,0,1-.26-.12.36.36,0,0,1-.11-.26.4.4,0,0,1,.11-.27.39.39,0,0,1,.53,0,.39.39,0,0,1,0,.54A.44.44,0,0,1,42.93,49.82Z"/><path class="cls-2" d="M44.06,55.63a.36.36,0,0,1-.26-.11.35.35,0,0,1-.11-.27.35.35,0,0,1,.1-.26.37.37,0,0,1,.64.26.43.43,0,0,1-.1.27A.4.4,0,0,1,44.06,55.63Z"/><path class="cls-2" d="M26.43,47.94a.38.38,0,0,1-.26-.11.36.36,0,0,1-.11-.26.37.37,0,0,1,.11-.27.38.38,0,0,1,.64.27.38.38,0,0,1-.11.26A.39.39,0,0,1,26.43,47.94Z"/><path class="cls-2" d="M49.31,52.44a.38.38,0,0,1-.38-.37.4.4,0,0,1,.12-.28.41.41,0,0,1,.53,0,.41.41,0,0,1,.11.27.37.37,0,0,1-.12.26A.35.35,0,0,1,49.31,52.44Z"/><path class="cls-2" d="M35.62,48.5a.38.38,0,0,1-.37-.37.37.37,0,0,1,.11-.27.4.4,0,0,1,.53,0,.39.39,0,0,1,.11.27.38.38,0,0,1-.11.26A.39.39,0,0,1,35.62,48.5Z"/><path class="cls-2" d="M36,52.44a.38.38,0,0,1-.38-.37.36.36,0,0,1,.12-.27.37.37,0,0,1,.52,0,.37.37,0,0,1,.11.27.35.35,0,0,1-.11.26A.36.36,0,0,1,36,52.44Z"/><path class="cls-2" d="M2.81,49.07A.4.4,0,0,1,2.54,49a.35.35,0,0,1-.11-.26.4.4,0,0,1,.12-.27.38.38,0,1,1,.26.65Z"/><path class="cls-2" d="M5.25,48.13A.38.38,0,0,1,5,48a.35.35,0,0,1-.11-.26A.36.36,0,0,1,5,47.49a.39.39,0,0,1,.53,0,.37.37,0,0,1,.12.26.4.4,0,0,1-.12.27A.36.36,0,0,1,5.25,48.13Z"/><path class="cls-2" d="M3.37,2.19A.38.38,0,0,1,3,1.82a.38.38,0,1,1,.75,0,.36.36,0,0,1-.11.26A.39.39,0,0,1,3.37,2.19Z"/><path class="cls-2" d="M10.12,6.5a.39.39,0,0,1-.27-.11.38.38,0,0,1-.1-.26.39.39,0,0,1,.11-.27.4.4,0,0,1,.53,0,.39.39,0,0,1,.11.27.32.32,0,0,1-.12.26A.35.35,0,0,1,10.12,6.5Z"/><path class="cls-2" d="M4.12,6.69a.39.39,0,0,1-.27-.11.4.4,0,0,1-.1-.26.37.37,0,0,1,.11-.27.4.4,0,0,1,.53,0,.37.37,0,0,1,.11.27.36.36,0,0,1-.11.26A.39.39,0,0,1,4.12,6.69Z"/><path class="cls-2" d="M22.5,4.07A.4.4,0,0,1,22.23,4a.39.39,0,0,1-.11-.26.4.4,0,0,1,.11-.27.4.4,0,0,1,.53,0,.36.36,0,0,1,.11.27.39.39,0,0,1-.11.27A.41.41,0,0,1,22.5,4.07Z"/><path class="cls-2" d="M31.12,1.44a.38.38,0,0,1-.26-.11.39.39,0,0,1-.11-.27A.36.36,0,0,1,30.86.8a.39.39,0,0,1,.53,0,.38.38,0,0,1,.11.26.38.38,0,0,1-.38.38Z"/><path class="cls-2" d="M46.87,5a.38.38,0,0,1-.26-.11.36.36,0,0,1-.11-.26.39.39,0,0,1,.11-.27.37.37,0,0,1,.52,0,.36.36,0,0,1,.12.27.36.36,0,0,1-.11.26A.39.39,0,0,1,46.87,5Z"/><path class="cls-2" d="M33.75,5.57a.4.4,0,0,1-.27-.12.39.39,0,0,1-.11-.26.4.4,0,0,1,.12-.27.37.37,0,0,1,.52,0,.35.35,0,0,1,.11.26.39.39,0,0,1-.11.27A.41.41,0,0,1,33.75,5.57Z"/><path class="cls-2" d="M22.87,7.44a.36.36,0,0,1-.37-.38.36.36,0,0,1,.11-.26.39.39,0,0,1,.53,0,.38.38,0,0,1,.11.26.34.34,0,0,1-.12.27A.35.35,0,0,1,22.87,7.44Z"/><path class="cls-2" d="M13.31,2.75A.39.39,0,0,1,13,2.64a.36.36,0,0,1-.11-.26.36.36,0,0,1,.12-.27.4.4,0,0,1,.53,0,.39.39,0,0,1,.11.27.36.36,0,0,1-.11.26A.39.39,0,0,1,13.31,2.75Z"/><path class="cls-2" d="M15.94,5.56a.35.35,0,0,1-.27-.11.35.35,0,0,1-.11-.26.37.37,0,0,1,.64-.26.35.35,0,0,1,.11.26.39.39,0,0,1-.11.27A.42.42,0,0,1,15.94,5.56Z"/><path class="cls-2" d="M41.25,7.63A.39.39,0,0,1,41,7.52a.4.4,0,0,1-.11-.27A.38.38,0,0,1,41,7a.39.39,0,0,1,.54,0,.4.4,0,0,1,.1.26.38.38,0,0,1-.37.38Z"/><path class="cls-2" d="M7.5,3.88a.36.36,0,0,1-.27-.12.39.39,0,0,1-.11-.26.36.36,0,0,1,.11-.26.38.38,0,0,1,.53,0,.36.36,0,0,1,.11.26.39.39,0,0,1-.11.27A.36.36,0,0,1,7.5,3.88Z"/><path class="cls-2" d="M29.62,7.81a.33.33,0,0,1-.26-.11.35.35,0,0,1-.11-.26.4.4,0,0,1,.11-.27.39.39,0,0,1,.53,0,.39.39,0,0,1,0,.54A.38.38,0,0,1,29.62,7.81Z"/><path class="cls-2" d="M10.69,9.13A.34.34,0,0,1,10.42,9a.35.35,0,0,1-.11-.26.36.36,0,0,1,.11-.26.38.38,0,0,1,.53,0,.36.36,0,0,1,.11.26A.39.39,0,0,1,11,9,.38.38,0,0,1,10.69,9.13Z"/><path class="cls-2" d="M34.5,9.32a.4.4,0,0,1-.27-.12.39.39,0,0,1-.11-.26.4.4,0,0,1,.12-.27.38.38,0,0,1,.52,0,.35.35,0,0,1,.11.26.39.39,0,0,1-.11.27A.41.41,0,0,1,34.5,9.32Z"/><path class="cls-2" d="M16.68,1.07A.37.37,0,0,1,16.42,1a.35.35,0,0,1-.11-.26.4.4,0,0,1,.11-.27.4.4,0,0,1,.53,0,.4.4,0,0,1,.11.27A.39.39,0,0,1,17,1,.44.44,0,0,1,16.68,1.07Z"/><path class="cls-2" d="M36.93,1.63a.36.36,0,0,1-.26-.11.39.39,0,0,1-.11-.27A.36.36,0,0,1,36.67,1a.39.39,0,0,1,.53,0,.36.36,0,0,1,.11.26.4.4,0,0,1-.11.27A.37.37,0,0,1,36.93,1.63Z"/><path class="cls-2" d="M41.81,3.69a.39.39,0,0,1-.27-.11.35.35,0,0,1-.1-.26.36.36,0,0,1,.1-.27.4.4,0,0,1,.54,0,.36.36,0,0,1,.1.27.4.4,0,0,1-.1.26A.39.39,0,0,1,41.81,3.69Z"/><path class="cls-2" d="M45,8.75a.39.39,0,0,1-.27-.11.36.36,0,0,1-.11-.26.38.38,0,1,1,.75,0,.38.38,0,0,1-.37.37Z"/><path class="cls-2" d="M12.93,24.88a.34.34,0,0,1-.26-.12.35.35,0,0,1-.11-.26.36.36,0,0,1,.11-.26.38.38,0,0,1,.53,0,.36.36,0,0,1,.11.26.38.38,0,0,1-.38.38Z"/><path class="cls-2" d="M1.12,24.69a.39.39,0,0,1-.27-.11.42.42,0,0,1-.1-.26.39.39,0,0,1,.11-.27.39.39,0,0,1,.53,0,.39.39,0,0,1,.11.27.38.38,0,0,1-.11.26A.39.39,0,0,1,1.12,24.69Z"/><path class="cls-2" d="M5.44,30.69a.37.37,0,0,1-.27-.11.38.38,0,0,1-.11-.26.39.39,0,0,1,.11-.27.4.4,0,0,1,.53,0,.39.39,0,0,1,.11.27.38.38,0,0,1-.37.37Z"/><path class="cls-2" d="M3.37,37.07A.38.38,0,0,1,3.11,37a.39.39,0,0,1,0-.54.4.4,0,0,1,.53,0,.38.38,0,0,1-.27.65Z"/><path class="cls-2" d="M10.12,41.38a.36.36,0,0,1-.27-.12.38.38,0,0,1-.1-.26.39.39,0,0,1,.11-.27.4.4,0,0,1,.53,0,.35.35,0,0,1,.11.26.38.38,0,0,1-.38.38Z"/><path class="cls-2" d="M4.12,41.57a.4.4,0,0,1-.27-.12.38.38,0,0,1-.1-.26.4.4,0,0,1,.11-.27.4.4,0,0,1,.53,0,.4.4,0,0,1,.11.27.36.36,0,0,1-.12.27A.39.39,0,0,1,4.12,41.57Z"/><path class="cls-2" d="M10.5,23.38a.36.36,0,0,1-.27-.12.35.35,0,0,1-.11-.26.36.36,0,0,1,.11-.26.38.38,0,0,1,.53,0,.33.33,0,0,1,.11.26.39.39,0,0,1-.11.27A.36.36,0,0,1,10.5,23.38Z"/><path class="cls-2" d="M19.68,22.25a.36.36,0,0,1-.26-.11.35.35,0,0,1-.11-.26.38.38,0,1,1,.75,0,.36.36,0,0,1-.11.26A.37.37,0,0,1,19.68,22.25Z"/><path class="cls-2" d="M3.75,27.13A.36.36,0,0,1,3.48,27a.35.35,0,0,1-.11-.26.4.4,0,0,1,.12-.27.38.38,0,0,1,.52,0A.37.37,0,0,1,4,27,.36.36,0,0,1,3.75,27.13Z"/><path class="cls-2" d="M7.12,20.75a.39.39,0,0,1-.27-.11.4.4,0,0,1-.1-.26.39.39,0,0,1,.11-.27.4.4,0,0,1,.53,0,.39.39,0,0,1,.11.27.36.36,0,0,1-.11.26A.39.39,0,0,1,7.12,20.75Z"/><path class="cls-2" d="M24.56,25.63a.36.36,0,0,1-.27-.12.38.38,0,0,1-.1-.26A.36.36,0,0,1,24.3,25a.39.39,0,0,1,.53,0,.36.36,0,0,1,.11.26.4.4,0,0,1-.12.27A.35.35,0,0,1,24.56,25.63Z"/><path class="cls-2" d="M27,26.94a.34.34,0,0,1-.27-.12.33.33,0,0,1-.11-.25.4.4,0,0,1,.12-.28.4.4,0,0,1,.52,0,.37.37,0,0,1,.11.27.38.38,0,0,1-.11.26A.36.36,0,0,1,27,26.94Z"/><path class="cls-2" d="M7.5,33.88a.36.36,0,0,1-.27-.12.35.35,0,0,1-.11-.26.4.4,0,0,1,.11-.27.4.4,0,0,1,.53,0,.4.4,0,0,1,.11.27.39.39,0,0,1-.11.27A.36.36,0,0,1,7.5,33.88Z"/><path class="cls-2" d="M22.5,38.94a.39.39,0,0,1-.27-.11.39.39,0,0,1-.11-.27.36.36,0,0,1,.11-.26.4.4,0,0,1,.53,0,.38.38,0,0,1,.11.26.37.37,0,0,1-.11.27A.36.36,0,0,1,22.5,38.94Z"/><path class="cls-2" d="M31.12,36.31a.35.35,0,0,1-.26-.1.39.39,0,0,1-.11-.27.36.36,0,0,1,.11-.26.39.39,0,0,1,.53,0,.4.4,0,0,1,.11.27.39.39,0,0,1-.11.27A.38.38,0,0,1,31.12,36.31Z"/><path class="cls-2" d="M29.06,22.63a.36.36,0,0,1-.27-.12.38.38,0,0,1-.1-.26A.36.36,0,0,1,28.8,22a.4.4,0,0,1,.53,0,.35.35,0,0,1,.1.26.38.38,0,0,1-.1.27A.39.39,0,0,1,29.06,22.63Z"/><path class="cls-2" d="M40.87,21.69a.36.36,0,0,1-.26-.11.35.35,0,0,1-.11-.27.35.35,0,0,1,.11-.26.39.39,0,0,1,.53,0,.36.36,0,0,1,.11.26.34.34,0,0,1-.12.27A.35.35,0,0,1,40.87,21.69Z"/><path class="cls-2" d="M26.81,33.69a.36.36,0,0,1-.27-.12.35.35,0,0,1-.1-.26.36.36,0,0,1,.11-.26.4.4,0,0,1,.53,0,.38.38,0,0,1,.11.26.36.36,0,0,1-.12.27A.35.35,0,0,1,26.81,33.69Z"/><path class="cls-2" d="M46.87,39.88a.36.36,0,0,1-.26-.11.39.39,0,0,1-.11-.27.36.36,0,0,1,.11-.26.39.39,0,0,1,.53,0,.36.36,0,0,1,.11.26.38.38,0,0,1-.38.38Z"/><path class="cls-2" d="M33.75,40.44a.39.39,0,0,1-.27-.11.36.36,0,0,1,0-.53.38.38,0,0,1,.52,0,.35.35,0,0,1,.11.27.38.38,0,0,1-.11.26A.36.36,0,0,1,33.75,40.44Z"/><path class="cls-2" d="M22.87,42.32a.4.4,0,0,1-.27-.12.38.38,0,0,1-.1-.26.37.37,0,0,1,.64-.26.35.35,0,0,1,.11.26.38.38,0,0,1-.38.38Z"/><path class="cls-2" d="M13.31,37.63a.36.36,0,0,1-.27-.12.39.39,0,0,1-.11-.26.34.34,0,0,1,.12-.26.39.39,0,0,1,.53,0,.36.36,0,0,1,.11.26.4.4,0,0,1-.12.27A.35.35,0,0,1,13.31,37.63Z"/><path class="cls-2" d="M15.94,40.44a.37.37,0,0,1-.27-.11.38.38,0,0,1-.11-.26.39.39,0,0,1,.11-.27.4.4,0,0,1,.53,0,.39.39,0,0,1,.11.27.38.38,0,0,1-.37.37Z"/><path class="cls-2" d="M38.75,42.88a.38.38,0,0,1-.38-.38.36.36,0,0,1,.11-.26.39.39,0,0,1,.53,0,.36.36,0,0,1,.11.26.39.39,0,0,1-.11.27A.36.36,0,0,1,38.75,42.88Z"/><path class="cls-2" d="M48.93,33.32a.39.39,0,0,1-.26-.12.35.35,0,0,1-.11-.26.36.36,0,0,1,.12-.27.37.37,0,0,1,.52,0,.35.35,0,0,1,.11.26.39.39,0,0,1-.11.27A.44.44,0,0,1,48.93,33.32Z"/><path class="cls-2" d="M30.18,31.25a.38.38,0,0,1-.26-.11.36.36,0,0,1-.11-.26.38.38,0,1,1,.75,0,.36.36,0,0,1-.11.26A.37.37,0,0,1,30.18,31.25Z"/><path class="cls-2" d="M49.31,23a.38.38,0,0,1-.38-.37.38.38,0,0,1,.12-.27.4.4,0,0,1,.53,0,.41.41,0,0,1,.11.27.36.36,0,0,1-.12.26A.36.36,0,0,1,49.31,23Z"/><path class="cls-2" d="M35.06,21.13a.4.4,0,0,1-.27-.11.43.43,0,0,1-.1-.27.39.39,0,0,1,.11-.27.4.4,0,0,1,.53,0,.39.39,0,0,1,.11.26.4.4,0,0,1-.12.27A.36.36,0,0,1,35.06,21.13Z"/><path class="cls-2" d="M7.5,38.75a.39.39,0,0,1-.27-.11.36.36,0,0,1-.11-.26.39.39,0,0,1,.11-.27.4.4,0,0,1,.53,0,.39.39,0,0,1,.11.27.33.33,0,0,1-.11.26A.36.36,0,0,1,7.5,38.75Z"/><path class="cls-2" d="M24.56,21.13a.36.36,0,0,1-.27-.12.34.34,0,0,1-.1-.26.35.35,0,0,1,.1-.26.4.4,0,0,1,.54,0,.36.36,0,0,1,.11.26.4.4,0,0,1-.11.27A.39.39,0,0,1,24.56,21.13Z"/><path class="cls-2" d="M15.18,21.13a.32.32,0,0,1-.26-.12.35.35,0,0,1-.11-.26.36.36,0,0,1,.11-.26.38.38,0,0,1,.53,0,.36.36,0,0,1,.11.26.39.39,0,0,1-.11.27A.37.37,0,0,1,15.18,21.13Z"/><path class="cls-2" d="M29.62,42.69a.38.38,0,0,1-.26-.11.35.35,0,0,1-.11-.27.36.36,0,0,1,.11-.26.39.39,0,0,1,.53,0,.38.38,0,0,1,.11.26.34.34,0,0,1-.12.27A.35.35,0,0,1,29.62,42.69Z"/><path class="cls-2" d="M10.69,44a.35.35,0,0,1-.27-.11.36.36,0,0,1-.11-.26.39.39,0,0,1,.11-.27.4.4,0,0,1,.53,0,.39.39,0,0,1,.11.27.36.36,0,0,1-.11.26A.38.38,0,0,1,10.69,44Z"/><path class="cls-2" d="M43.87,18.5a.38.38,0,0,1-.26-.11.35.35,0,0,1-.11-.26.37.37,0,0,1,.11-.27.38.38,0,0,1,.64.27.32.32,0,0,1-.12.26A.35.35,0,0,1,43.87,18.5Z"/><path class="cls-2" d="M34.5,44.19a.39.39,0,0,1-.27-.11.36.36,0,0,1-.11-.26.37.37,0,0,1,.11-.27.38.38,0,0,1,.64.27.38.38,0,0,1-.11.26A.36.36,0,0,1,34.5,44.19Z"/><path class="cls-2" d="M44.75,25.38a.36.36,0,0,1-.27-.12.39.39,0,0,1-.11-.26.36.36,0,0,1,.11-.26.38.38,0,0,1,.53,0,.34.34,0,0,1,.12.26.4.4,0,0,1-.12.27A.36.36,0,0,1,44.75,25.38Z"/><path class="cls-2" d="M14.62,30.32a.4.4,0,0,1-.27-.12.38.38,0,0,1-.1-.26.4.4,0,0,1,.11-.27.4.4,0,0,1,.53,0,.39.39,0,0,1,0,.54A.39.39,0,0,1,14.62,30.32Z"/><path class="cls-2" d="M10.69,30.69a.35.35,0,0,1-.27-.11.36.36,0,0,1-.11-.26.39.39,0,0,1,.11-.27.4.4,0,0,1,.53,0,.39.39,0,0,1,.11.27.36.36,0,0,1-.11.26A.38.38,0,0,1,10.69,30.69Z"/><path class="cls-2" d="M20.81,32.94a.39.39,0,0,1-.27-.11.39.39,0,0,1-.11-.27.34.34,0,0,1,.12-.26.4.4,0,0,1,.53,0,.38.38,0,0,1-.27.64Z"/><path class="cls-2" d="M21.75,29.56a.39.39,0,0,1-.27-.11.35.35,0,0,1-.11-.26.4.4,0,0,1,.12-.27.37.37,0,0,1,.52,0,.35.35,0,0,1,.11.26.39.39,0,0,1-.11.27A.35.35,0,0,1,21.75,29.56Z"/><path class="cls-2" d="M18.56,27.13a.36.36,0,0,1-.27-.12.35.35,0,0,1-.11-.26.34.34,0,0,1,.12-.26.38.38,0,0,1,.53,0,.4.4,0,0,1,.1.26.43.43,0,0,1-.1.27A.4.4,0,0,1,18.56,27.13Z"/><path class="cls-2" d="M16.68,35.94a.36.36,0,0,1-.26-.11.37.37,0,0,1-.11-.27.38.38,0,0,1,.11-.26.39.39,0,0,1,.53,0,.38.38,0,0,1,.11.26.37.37,0,0,1-.11.27A.39.39,0,0,1,16.68,35.94Z"/><path class="cls-2" d="M45.93,30.32a.39.39,0,0,1-.26-.12.35.35,0,0,1-.11-.26.36.36,0,0,1,.12-.27.37.37,0,0,1,.52,0,.35.35,0,0,1,.11.26.39.39,0,0,1-.11.27A.44.44,0,0,1,45.93,30.32Z"/><path class="cls-2" d="M32.43,25.82a.38.38,0,0,1-.26-.11.37.37,0,1,1,.26.11Z"/><path class="cls-2" d="M38.62,30.69a.38.38,0,0,1-.26-.11.37.37,0,0,1-.11-.27.36.36,0,0,1,.11-.26.39.39,0,0,1,.53,0,.38.38,0,0,1,.11.26.38.38,0,0,1-.38.38Z"/><path class="cls-2" d="M40.31,27.32a.4.4,0,0,1-.27-.11.39.39,0,0,1-.1-.27.38.38,0,0,1,.1-.27.4.4,0,0,1,.54,0,.43.43,0,0,1,.1.27.39.39,0,0,1-.11.27A.36.36,0,0,1,40.31,27.32Z"/><path class="cls-2" d="M36.93,36.5a.38.38,0,0,1-.26-.11.35.35,0,0,1-.11-.26.37.37,0,0,1,.11-.27.4.4,0,0,1,.53,0,.37.37,0,0,1,.11.27.35.35,0,0,1-.11.26A.39.39,0,0,1,36.93,36.5Z"/><path class="cls-2" d="M41.81,38.57a.38.38,0,0,1-.37-.38.39.39,0,0,1,.11-.27.41.41,0,0,1,.53,0,.43.43,0,0,1,.1.27.39.39,0,0,1-.1.27A.4.4,0,0,1,41.81,38.57Z"/><path class="cls-2" d="M42.93,34.44a.38.38,0,0,1-.26-.11.35.35,0,0,1-.11-.26.37.37,0,0,1,.11-.27.39.39,0,0,1,.53,0,.37.37,0,0,1,.11.27.35.35,0,0,1-.11.26A.39.39,0,0,1,42.93,34.44Z"/><path class="cls-2" d="M45,43.63a.39.39,0,0,1-.27-.11.44.44,0,0,1-.11-.27.4.4,0,0,1,.12-.27.38.38,0,0,1,.52,0,.35.35,0,0,1,.11.26.39.39,0,0,1-.11.27A.36.36,0,0,1,45,43.63Z"/><path class="cls-2" d="M49.87,43.44a.38.38,0,0,1-.26-.11.35.35,0,0,1-.11-.26.35.35,0,0,1,.11-.27.39.39,0,0,1,.53,0,.37.37,0,0,1,.11.27.32.32,0,0,1-.12.26A.35.35,0,0,1,49.87,43.44Z"/><path class="cls-2" d="M54.56,45.32a.4.4,0,0,1-.27-.12.39.39,0,0,1-.11-.26.37.37,0,0,1,.12-.27.4.4,0,0,1,.53,0,.36.36,0,0,1,.11.26.4.4,0,0,1-.12.27A.39.39,0,0,1,54.56,45.32Z"/><path class="cls-2" d="M55.5,20.19a.39.39,0,0,1-.27-.11.38.38,0,0,1-.11-.26.38.38,0,1,1,.75,0,.34.34,0,0,1-.11.26A.36.36,0,0,1,55.5,20.19Z"/><path class="cls-2" d="M53.81,38.75a.37.37,0,0,1-.27-.64.4.4,0,0,1,.53,0,.35.35,0,0,1,0,.53A.36.36,0,0,1,53.81,38.75Z"/><path class="cls-2" d="M60.37,45.69a.39.39,0,0,1-.27-.11.43.43,0,0,1-.1-.27.36.36,0,0,1,.11-.26.39.39,0,0,1,.53,0,.36.36,0,0,1,.11.26.38.38,0,0,1-.38.38Z"/><path class="cls-2" d="M55.31,32a.39.39,0,0,1-.27-.11.36.36,0,0,1-.11-.26.36.36,0,0,1,.12-.27.38.38,0,0,1,.52,0,.36.36,0,0,1,.12.27.36.36,0,0,1-.11.26A.4.4,0,0,1,55.31,32Z"/><path class="cls-2" d="M61.31,27.69a.35.35,0,0,1-.26-.11.35.35,0,0,1-.12-.26.39.39,0,0,1,.11-.27.4.4,0,0,1,.54,0,.39.39,0,0,1,.11.27.38.38,0,0,1-.11.26A.4.4,0,0,1,61.31,27.69Z"/><path class="cls-2" d="M66,44.38a.4.4,0,0,1-.27-.12.35.35,0,0,1-.11-.26.4.4,0,0,1,.12-.27.37.37,0,0,1,.52,0,.35.35,0,0,1,.11.26.39.39,0,0,1-.11.27A.36.36,0,0,1,66,44.38Z"/><path class="cls-2" d="M72.19,45.5a.35.35,0,0,1-.27-.11.36.36,0,0,1-.11-.26.37.37,0,0,1,.11-.27.4.4,0,0,1,.53,0,.39.39,0,0,1,.11.27.38.38,0,0,1-.37.37Z"/><path class="cls-2" d="M67.69,29.75a.35.35,0,0,1-.27-.11.36.36,0,0,1-.11-.26.37.37,0,0,1,.11-.27.39.39,0,0,1,.53,0,.33.33,0,0,1,.11.26.38.38,0,0,1-.11.26A.35.35,0,0,1,67.69,29.75Z"/><path class="cls-2" d="M72,23a.39.39,0,0,1-.27-.11.37.37,0,0,1,.53-.53.37.37,0,0,1,.11.27.38.38,0,0,1-.11.26A.36.36,0,0,1,72,23Z"/><path class="cls-2" d="M72.19,29a.35.35,0,0,1-.27-.11.36.36,0,0,1-.11-.26.33.33,0,0,1,.12-.27.37.37,0,0,1,.63.27.38.38,0,0,1-.37.37Z"/><path class="cls-2" d="M72.19,39.88a.36.36,0,0,1-.27-.12.35.35,0,0,1-.11-.26.36.36,0,0,1,.12-.27.38.38,0,0,1,.52,0,.35.35,0,0,1,.11.26.39.39,0,0,1-.11.27A.36.36,0,0,1,72.19,39.88Z"/><path class="cls-2" d="M54,22.63a.36.36,0,0,1-.27-.12.36.36,0,0,1-.11-.26.4.4,0,0,1,.12-.27.37.37,0,0,1,.52,0,.35.35,0,0,1,.11.26.4.4,0,0,1-.11.27A.36.36,0,0,1,54,22.63Z"/><path class="cls-2" d="M52.87,13.44a.35.35,0,0,1-.26-.11.36.36,0,0,1-.11-.26.37.37,0,0,1,.11-.27.38.38,0,0,1,.64.27.38.38,0,0,1-.11.26A.39.39,0,0,1,52.87,13.44Z"/><path class="cls-2" d="M50.81,34.82a.36.36,0,0,1-.26-.11.35.35,0,0,1-.11-.27.39.39,0,0,1,.1-.27.4.4,0,0,1,.54,0,.35.35,0,0,1,.1.26.38.38,0,0,1-.1.27A.4.4,0,0,1,50.81,34.82Z"/><path class="cls-2" d="M58.75,30.88a.36.36,0,0,1-.27-.12.39.39,0,0,1-.11-.26.36.36,0,0,1,.12-.27.39.39,0,0,1,.64.27.4.4,0,0,1-.12.27A.36.36,0,0,1,58.75,30.88Z"/><path class="cls-2" d="M51.37,26a.39.39,0,0,1-.27-.11.38.38,0,0,1-.1-.26.39.39,0,0,1,.11-.27.4.4,0,0,1,.53,0,.39.39,0,0,1,.11.27.32.32,0,0,1-.12.26A.36.36,0,0,1,51.37,26Z"/><path class="cls-2" d="M56.25,8.57A.4.4,0,0,1,56,8.45a.39.39,0,0,1-.11-.26A.36.36,0,0,1,56,7.92a.39.39,0,0,1,.53,0,.38.38,0,0,1,.1.26.38.38,0,0,1-.37.38Z"/><path class="cls-2" d="M57.56,6.13A.39.39,0,0,1,57.29,6a.4.4,0,0,1-.11-.27.36.36,0,0,1,.11-.26.39.39,0,0,1,.54,0,.35.35,0,0,1,.1.26.38.38,0,0,1-.1.27A.39.39,0,0,1,57.56,6.13Z"/><path class="cls-2" d="M64.5,25.63a.38.38,0,0,1-.27-.12.34.34,0,0,1-.1-.26.35.35,0,0,1,.1-.26.39.39,0,0,1,.53,0,.36.36,0,0,1,.11.27.39.39,0,0,1-.11.27A.36.36,0,0,1,64.5,25.63Z"/><path class="cls-2" d="M69.56,10.63a.4.4,0,0,1-.27-.12.39.39,0,0,1-.11-.26.36.36,0,0,1,.11-.26.39.39,0,0,1,.54,0,.35.35,0,0,1,.1.26.37.37,0,0,1-.11.27A.36.36,0,0,1,69.56,10.63Z"/><path class="cls-2" d="M66.93,2a.36.36,0,0,1-.26-.11.35.35,0,0,1-.11-.26.39.39,0,0,1,.11-.27.4.4,0,0,1,.53,0,.39.39,0,0,1,.11.27.35.35,0,0,1-.11.26A.39.39,0,0,1,66.93,2Z"/><path class="cls-2" d="M53.25,4.07A.39.39,0,0,1,53,4a.4.4,0,0,1-.11-.27A.36.36,0,0,1,53,3.43a.37.37,0,0,1,.64.26.33.33,0,0,1-.11.26A.34.34,0,0,1,53.25,4.07Z"/><path class="cls-2" d="M64.31,6.31A.39.39,0,0,1,64,6.2a.35.35,0,0,1-.11-.26A.4.4,0,0,1,64,5.67a.4.4,0,0,1,.53,0,.36.36,0,0,1,.11.27.43.43,0,0,1-.1.27A.38.38,0,0,1,64.31,6.31Z"/><path class="cls-2" d="M68.25,19.81A.39.39,0,0,1,68,19.7a.36.36,0,0,1-.11-.26.36.36,0,0,1,.12-.27.37.37,0,0,1,.52,0,.35.35,0,0,1,.11.26.39.39,0,0,1-.11.27A.38.38,0,0,1,68.25,19.81Z"/><path class="cls-2" d="M71.06,17.19a.39.39,0,0,1-.27-.11.42.42,0,0,1-.1-.26.37.37,0,0,1,.11-.27.4.4,0,0,1,.53,0,.41.41,0,0,1,.11.27.38.38,0,0,1-.11.26A.39.39,0,0,1,71.06,17.19Z"/><path class="cls-2" d="M61.87,2.94a.39.39,0,0,1-.27-.11.42.42,0,0,1-.1-.26.39.39,0,0,1,.11-.27.4.4,0,0,1,.53,0,.39.39,0,0,1,.11.27.38.38,0,0,1-.11.26A.39.39,0,0,1,61.87,2.94Z"/><path class="cls-2" d="M69.37,25.63a.36.36,0,0,1-.27-.12.38.38,0,0,1-.1-.26.36.36,0,0,1,.11-.26.39.39,0,0,1,.53,0,.36.36,0,0,1,.11.26.36.36,0,0,1-.12.27A.35.35,0,0,1,69.37,25.63Z"/><path class="cls-2" d="M51.75,8.57a.4.4,0,0,1-.27-.12.35.35,0,0,1-.11-.26.4.4,0,0,1,.11-.27.38.38,0,0,1,.53,0,.36.36,0,0,1,.11.26.39.39,0,0,1-.11.27A.41.41,0,0,1,51.75,8.57Z"/><path class="cls-2" d="M51.75,17.94a.39.39,0,0,1-.27-.11.35.35,0,0,1-.11-.26.34.34,0,0,1,.12-.27.37.37,0,0,1,.52,0,.37.37,0,0,1,.11.27.35.35,0,0,1-.11.26A.36.36,0,0,1,51.75,17.94Z"/><path class="cls-2" d="M65.62,41.94a.36.36,0,0,1-.26-.11.38.38,0,0,1-.11-.26.37.37,0,0,1,.11-.27.39.39,0,0,1,.53,0,.35.35,0,0,1,.11.27.38.38,0,0,1-.11.26A.39.39,0,0,1,65.62,41.94Z"/><path class="cls-2" d="M63.37,34.07A.4.4,0,0,1,63.1,34a.38.38,0,0,1-.1-.26.36.36,0,0,1,.11-.26.39.39,0,0,1,.53,0,.4.4,0,0,1,.11.27.36.36,0,0,1-.12.27A.39.39,0,0,1,63.37,34.07Z"/><path class="cls-2" d="M59.81,40.07a.4.4,0,0,1-.27-.12.39.39,0,0,1-.11-.26.4.4,0,0,1,.12-.27.38.38,0,0,1,.64.27.4.4,0,0,1-.12.27A.36.36,0,0,1,59.81,40.07Z"/><path class="cls-2" d="M68.44,35.75a.35.35,0,0,1-.27-.11.36.36,0,0,1-.11-.26.37.37,0,0,1,.11-.27.4.4,0,0,1,.53,0,.39.39,0,0,1,.11.27.38.38,0,0,1-.37.37Z"/><path class="cls-2" d="M60.94,18.5a.35.35,0,0,1-.27-.11.36.36,0,0,1-.11-.26.38.38,0,1,1,.75,0,.38.38,0,0,1-.37.37Z"/><path class="cls-2" d="M61.31,22.44a.36.36,0,0,1-.27-.12.34.34,0,0,1-.11-.25.36.36,0,0,1,.12-.27.4.4,0,0,1,.53,0,.39.39,0,0,1,.11.27.36.36,0,0,1-.12.26A.35.35,0,0,1,61.31,22.44Z"/><path class="cls-2" d="M63.56,12.32a.44.44,0,0,1-.27-.11.39.39,0,0,1-.11-.27.36.36,0,0,1,.12-.27.39.39,0,0,1,.53,0,.35.35,0,0,1,.11.26.39.39,0,0,1-.11.27A.4.4,0,0,1,63.56,12.32Z"/><path class="cls-2" d="M60.19,11.38a.33.33,0,0,1-.27-.12.35.35,0,0,1-.11-.26.36.36,0,0,1,.11-.26.38.38,0,0,1,.53,0,.36.36,0,0,1,.11.26.39.39,0,0,1-.11.27A.36.36,0,0,1,60.19,11.38Z"/><path class="cls-2" d="M57.75,14.57a.4.4,0,0,1-.27-.12.35.35,0,0,1-.11-.26.4.4,0,0,1,.12-.27.38.38,0,0,1,.52,0,.35.35,0,0,1,.11.26.36.36,0,0,1-.11.26A.37.37,0,0,1,57.75,14.57Z"/><path class="cls-2" d="M66.56,16.44a.39.39,0,0,1-.27-.11.42.42,0,0,1-.1-.26.35.35,0,0,1,.11-.27.38.38,0,0,1,.64.27.38.38,0,0,1-.11.26A.4.4,0,0,1,66.56,16.44Z"/><path class="cls-2" d="M56.43.69a.35.35,0,0,1-.26-.11.39.39,0,0,1-.11-.27.36.36,0,0,1,.11-.26.4.4,0,0,1,.53,0,.36.36,0,0,1,.11.26.39.39,0,0,1-.11.27A.37.37,0,0,1,56.43.69Z"/><path class="cls-2" d="M45.75,47.19a.39.39,0,0,1-.27-.11.36.36,0,0,1-.11-.26.36.36,0,0,1,.12-.27.37.37,0,0,1,.52.53A.4.4,0,0,1,45.75,47.19Z"/><path class="cls-2" d="M41.25,46.44a.4.4,0,0,1-.27-.11.39.39,0,0,1-.11-.27A.38.38,0,0,1,41,45.8a.39.39,0,0,1,.54,0,.42.42,0,0,1,.1.26.39.39,0,0,1-.11.27A.35.35,0,0,1,41.25,46.44Z"/><path class="cls-2" d="M9.75,12.32a.4.4,0,0,1-.27-.12.36.36,0,0,1-.11-.26.4.4,0,0,1,.11-.27.4.4,0,0,1,.53,0,.42.42,0,0,1,.12.27.37.37,0,0,1-.12.26A.34.34,0,0,1,9.75,12.32Z"/><path class="cls-2" d="M18.19,13.63a.34.34,0,0,1-.27-.12.35.35,0,0,1-.11-.26.36.36,0,0,1,.11-.26.39.39,0,0,1,.53,0,.36.36,0,0,1,.11.26.39.39,0,0,1-.11.27A.38.38,0,0,1,18.19,13.63Z"/><path class="cls-2" d="M3.94,11.75a.35.35,0,0,1-.27-.11.36.36,0,0,1-.11-.26.39.39,0,0,1,.11-.27.4.4,0,0,1,.53,0,.39.39,0,0,1,.11.27.36.36,0,0,1-.11.26A.38.38,0,0,1,3.94,11.75Z"/><path class="cls-2" d="M15.56,17.38a.36.36,0,0,1-.27-.12.35.35,0,0,1-.11-.26.38.38,0,0,1,.65-.26.38.38,0,0,1-.27.64Z"/><path class="cls-2" d="M1.31,16.44A.39.39,0,0,1,1,16.33a.36.36,0,0,1,0-.53.38.38,0,0,1,.53,0,.35.35,0,0,1,.11.26.36.36,0,0,1-.11.26A.39.39,0,0,1,1.31,16.44Z"/><path class="cls-2" d="M9.19,17.94a.37.37,0,0,1-.27-.11.38.38,0,0,1-.11-.26.39.39,0,0,1,.11-.27.4.4,0,0,1,.53,0,.39.39,0,0,1,.11.27.38.38,0,0,1-.37.37Z"/><path class="cls-2" d="M24.37,10.82a.41.41,0,0,1-.26-.11.4.4,0,0,1-.11-.27.38.38,0,1,1,.75,0,.36.36,0,0,1-.11.26A.4.4,0,0,1,24.37,10.82Z"/><path class="cls-2" d="M30.18,18.32a.38.38,0,0,1-.26-.11.4.4,0,0,1-.11-.27.39.39,0,0,1,.11-.27.4.4,0,0,1,.53,0,.39.39,0,0,1,.11.27.36.36,0,0,1-.11.26A.4.4,0,0,1,30.18,18.32Z"/><path class="cls-2" d="M40.87,13.63a.36.36,0,0,1-.26-.11.39.39,0,0,1,0-.54.4.4,0,0,1,.53,0,.35.35,0,0,1,.11.26.36.36,0,0,1-.12.27A.35.35,0,0,1,40.87,13.63Z"/><path class="cls-2" d="M24.25,14.88a.36.36,0,0,1-.27-.12.34.34,0,0,1-.1-.26.37.37,0,0,1,.63-.26.35.35,0,0,1,.11.26.39.39,0,0,1-.11.27A.36.36,0,0,1,24.25,14.88Z"/><path class="cls-2" d="M20.25,16.63a.38.38,0,0,1-.38-.38A.4.4,0,0,1,20,16a.38.38,0,0,1,.52,0,.35.35,0,0,1,.11.26.39.39,0,0,1-.11.27A.36.36,0,0,1,20.25,16.63Z"/><path class="cls-2" d="M33.37,16.25a.38.38,0,0,1-.37-.37.38.38,0,1,1,.75,0,.38.38,0,0,1-.11.26A.39.39,0,0,1,33.37,16.25Z"/><path class="cls-2" d="M37.12,10.44a.38.38,0,0,1-.26-.11.36.36,0,0,1-.11-.26.35.35,0,0,1,.11-.27.39.39,0,0,1,.53,0,.37.37,0,0,1,.11.27.38.38,0,0,1-.11.26A.4.4,0,0,1,37.12,10.44Z"/><path class="cls-2" d="M38.25,16.25a.39.39,0,0,1-.27-.11.36.36,0,0,1-.11-.26.38.38,0,1,1,.75,0,.38.38,0,0,1-.37.37Z"/><path class="cls-2" d="M43.5,13.07a.38.38,0,1,1,.37-.38.36.36,0,0,1-.11.26A.34.34,0,0,1,43.5,13.07Z"/><path class="cls-2" d="M30.18,13.07a.38.38,0,0,1-.26-.11.38.38,0,1,1,.53,0A.44.44,0,0,1,30.18,13.07Z"/><path class="cls-2" d="M14.81,44.57a.4.4,0,0,1-.27-.12.36.36,0,0,1-.11-.26.37.37,0,0,1,.12-.27.39.39,0,0,1,.53,0,.36.36,0,0,1,.11.26.38.38,0,0,1-.38.38Z"/><path class="cls-2" d="M3.75.13A.36.36,0,0,1,3.48,0a.35.35,0,0,1-.11-.26.36.36,0,0,1,.11-.26A.39.39,0,0,1,4-.51a.36.36,0,0,1,.11.26A.39.39,0,0,1,4,0,.36.36,0,0,1,3.75.13Z"/><path class="cls-2" d="M18.56.13A.36.36,0,0,1,18.29,0a.36.36,0,0,1-.11-.26.34.34,0,0,1,.12-.26.38.38,0,0,1,.53,0,.4.4,0,0,1,.1.26.39.39,0,0,1-.1.27A.4.4,0,0,1,18.56.13Z"/><path class="cls-2" d="M40.31.31A.35.35,0,0,1,40,.2a.34.34,0,0,1-.1-.26A.35.35,0,0,1,40-.32a.39.39,0,0,1,.54,0,.38.38,0,0,1,.1.27.39.39,0,0,1-.11.27A.34.34,0,0,1,40.31.31Z"/><path class="cls-2" d="M56.43,72.69a.38.38,0,0,1-.37-.37.37.37,0,0,1,.11-.27.4.4,0,0,1,.53,0,.37.37,0,0,1,.11.27.35.35,0,0,1-.11.26A.39.39,0,0,1,56.43,72.69Z"/><path class="cls-2" d="M.19,45.5a.35.35,0,0,1-.27-.11.36.36,0,0,1-.11-.26.37.37,0,0,1,.11-.27.4.4,0,0,1,.53,0,.39.39,0,0,1,.11.27.36.36,0,0,1-.11.26A.36.36,0,0,1,.19,45.5Z"/><path class="cls-2" d="M0,23a.39.39,0,0,1-.27-.11.38.38,0,0,1-.11-.26.38.38,0,0,1,.12-.27.38.38,0,0,1,.52,0,.37.37,0,0,1,.11.27.38.38,0,0,1-.11.26A.36.36,0,0,1,0,23Z"/><path class="cls-2" d="M.19,29a.35.35,0,0,1-.27-.11.36.36,0,0,1-.11-.26.33.33,0,0,1,.12-.27.38.38,0,0,1,.52,0,.39.39,0,0,1,.11.27.36.36,0,0,1-.11.26A.36.36,0,0,1,.19,29Z"/><path class="cls-2" d="M.19,39.88a.36.36,0,0,1-.27-.12.35.35,0,0,1-.11-.26.36.36,0,0,1,.12-.27.38.38,0,0,1,.52,0,.35.35,0,0,1,.11.26.39.39,0,0,1-.11.27A.36.36,0,0,1,.19,39.88Z"/><path class="cls-2" d="M3.75.13A.36.36,0,0,1,3.48,0a.39.39,0,0,1-.11-.26.36.36,0,0,1,.11-.26A.4.4,0,0,1,4-.51a.33.33,0,0,1,.11.26A.39.39,0,0,1,4,0,.36.36,0,0,1,3.75.13Z"/><path class="cls-2" d="M18.56.13A.36.36,0,0,1,18.29,0a.39.39,0,0,1-.11-.26.34.34,0,0,1,.12-.26.38.38,0,0,1,.53,0,.4.4,0,0,1,.1.26.39.39,0,0,1-.11.27A.36.36,0,0,1,18.56.13Z"/><path class="cls-2" d="M40.31.32A.4.4,0,0,1,40,.2a.38.38,0,0,1-.1-.26.39.39,0,0,1,.11-.27.39.39,0,0,1,.53,0,.38.38,0,0,1,.1.26.39.39,0,0,1-.11.27A.39.39,0,0,1,40.31.32Z"/><path class="cls-2" d="M56.43.69a.35.35,0,0,1-.26-.11.35.35,0,0,1-.11-.26.37.37,0,0,1,.11-.27.4.4,0,0,1,.53,0,.37.37,0,0,1,.11.27.35.35,0,0,1-.11.26A.39.39,0,0,1,56.43.69Z"/></pattern></defs><g id="Achtergrond"><rect class="cls-3" x="-1" width="1280" height="1077"/><line class="cls-4" x1="78" y1="-49" x2="78" y2="1100"/><line class="cls-4" x1="158.5" y1="-49" x2="158.5" y2="1100"/><line class="cls-4" x1="239" y1="-49" x2="239" y2="1100"/><line class="cls-4" x1="319.5" y1="-49" x2="319.5" y2="1100"/><line class="cls-4" x1="400" y1="-49" x2="400" y2="1100"/><line class="cls-4" x1="480.5" y1="-49" x2="480.5" y2="1100"/><line class="cls-4" x1="561" y1="-49" x2="561" y2="1100"/><line class="cls-4" x1="641.5" y1="-49" x2="641.5" y2="1100"/><line class="cls-4" x1="722" y1="-49" x2="722" y2="1100"/><line class="cls-4" x1="802.5" y1="-49" x2="802.5" y2="1100"/><line class="cls-4" x1="883" y1="-49" x2="883" y2="1100"/><line class="cls-4" x1="963.5" y1="-49" x2="963.5" y2="1100"/><line class="cls-4" x1="1044" y1="-49" x2="1044" y2="1100"/><line class="cls-4" x1="1124.5" y1="-49" x2="1124.5" y2="1100"/><line class="cls-4" x1="1205" y1="-49" x2="1205" y2="1100"/><line class="cls-4" x1="1335" y1="58.25" x2="-57.75" y2="58.25"/><line class="cls-4" x1="1335" y1="138.75" x2="-57.75" y2="138.75"/><line class="cls-4" x1="1335" y1="219.25" x2="-57.75" y2="219.25"/><line class="cls-4" x1="1335" y1="299.75" x2="-57.75" y2="299.75"/><line class="cls-4" x1="1335" y1="380.25" x2="-57.75" y2="380.25"/><line class="cls-4" x1="1335" y1="460.75" x2="-57.75" y2="460.75"/><line class="cls-4" x1="1335" y1="541.25" x2="-57.75" y2="541.25"/><line class="cls-4" x1="1335" y1="621.75" x2="-57.75" y2="621.75"/><line class="cls-4" x1="1335" y1="702.25" x2="-57.75" y2="702.25"/><line class="cls-4" x1="1335" y1="782.75" x2="-57.75" y2="782.75"/><line class="cls-4" x1="1335" y1="863.25" x2="-57.75" y2="863.25"/><line class="cls-4" x1="1335" y1="943.75" x2="-57.75" y2="943.75"/><line class="cls-4" x1="1335" y1="1024.25" x2="-57.75" y2="1024.25"/><path class="cls-5" d="M709.31,7.32c8.38,2.51,8.57,3.33,12.79,11s-7,13.84-2.81,21.5,15.57,1.42,19.79,9.09S730.79,63.45,735,71.12s19.33-.65,23.55,7,.81,9.57,5,17.26c4.35,8-2.65,11.79,1.65,19.85s.65,10,5,18.06,20.57-.64,24.88,7.42-8.18,14.72-3.87,22.78,4.63,7.88,8.94,15.94,16.37,1.61,20.68,9.66,3.45,8.52,7.75,16.57-2.1,11.48,2.21,19.54-5.59,13.34-1.28,21.39,19.76-.19,24.06,7.87-6.24,13.69-1.93,21.75,13.79,3,18.09,11,5,7.35,9.62,15.24c4.41,7.52,1.86,8.78,6.57,16.12s2,9,6.76,16.38,3.43,8.16,8.13,15.5,9.34,4.36,14,11.7,1.85,9.18,6.55,16.52,3.84,7.9,8.54,15.24,9,4.59,13.7,11.93-8.54,15.82-3.83,23.17,11.65,2.88,16.36,10.22,11.16,3.21,15.86,10.55-6,10.59-4.89,19.25,11.26,8.9,8.48,17.19-15.82,3.9-18.6,12.18-4.65,7.65-7.43,15.93,13.24,13.66,10.46,21.94-7.69,6.63-10.47,14.91-4.2,7.8-7,16.08,2.07,9.92-.71,18.2,0,9.2-2.82,17.48-18.43,3-21.21,11.3,13.14,13.63,10.36,21.91-4,7.88-6.78,16.16-11.36,5.4-14.14,13.68,8.17,12,5.39,20.24-19.91,2.53-22.69,10.82,9,12.24,6.23,20.53-9,6.12-12,14.35c-3.08,8.62-4,8.23-7.21,16.79s1.69,10.44-1.56,19-.89,9.46-4.14,18-13.38,4.72-16.63,13.28-2.62,8.8-5.87,17.36.34,9.93-2.91,18.49-5.54,7.7-8.79,16.26-4.59,8.18-7.67,16.81c-2.9,8.12-.74,9-3.47,17.16s6.63,11.29,3.9,19.48-9,6.09-11.72,14.27.67,9.31-2.06,17.49-1,8.76-3.72,16.94-9.91,5.79-12.64,14,5.47,10.91,2.74,19.09-7.82,6.49-10.54,14.67-9.27,6-12,14.19,10.47,12.58,7.74,20.76-3.64,6.38-12.26,6c-9.19-.46-5.28.08-8.81-8.42s1.5-10.57-2-19.07-1.32-9.41-4.85-17.91-9.59-6-13.11-14.49-2-9.12-5.56-17.62-2.49-8.92-6-17.42,3.52-11.42,0-19.92-14.72-3.86-18.24-12.36S705.57,909.45,702,901s11.69-15.54,7.23-23.59c-4.2-7.61-6.45-6.87-11.53-13.92s-5.47-6.77-10.56-13.82-7.73-5.14-12.81-12.2-10.42-3.2-15.51-10.25,4.27-13.79-.82-20.84-1.39-9.71-6.47-16.77S631.89,793,626.81,786s-.08-10.66-5.17-17.71,4.12-13.69-1-20.74S611,743.76,606,736.7s-9.53-3.89-14.44-11.07c-5.16-7.54,1.71-12-3.26-19.7s-15.71-.68-20.68-8.33-6.26-6.83-11.23-14.48,3-12.82-2-20.48-7.9-5.74-12.87-13.4,4.46-13.78-.52-21.44-14.74-1.31-19.71-9-3.92-8.34-8.9-16-5.26-7.47-10.23-15.12-.5-10.57-5.48-18.23-4.92-7.69-9.89-15.34-14.52-1.46-19.5-9.11,8.22-16.23,3.24-23.89-4.39-8-9.37-15.69-7.71-5.88-12.69-13.54-8.25-5.5-13.13-13.22-11-3.74-15.69-11.38-.14-10.43-4.83-18.07-7.64-5.84-12.33-13.48,6.35-14.41,1.66-22-8.79-5.13-13.48-12.77-10-4.38-14.69-12,2.81-12.25-1.88-19.89-3.91-8.12-8.6-15.76-4.91-7.51-9.6-15.15-13-2.52-17.73-10.16,4.42-13.23-.27-20.88-14.68-1.51-19.38-9.15,1-11.13-3.7-18.77-16-.72-20.66-8.36,3-12.38-1.68-20,3.16-12.46-1.53-20.11-16.32-1.17-13.81-9.78,7.36-.06,15.43-4,8.88-2.35,17-6.33,2.32-15.65,10.39-19.63,12.17,4.33,20.25.35,8.76-2.58,16.84-6.56,2.72-14.84,10.79-18.82,13.59,7.21,21.66,3.22,6.63-6.91,14.7-10.9,9.84-.4,17.91-4.38,2-16.23,10.11-20.21,11.07,2.09,19.14-1.89,9.81-.46,17.89-4.44,5.09-10,13.16-14,10.19.31,18.27-3.67,5.2-9.8,13.27-13.78,9.63-.83,17.7-4.81,8.49-3.15,16.56-7.13,8.74-2.64,16.81-6.62,3.86-12.53,11.93-16.51,12.6,5.18,20.67,1.2,7.2-5.76,15.27-9.75,12.88,5.75,21,1.77S638.92,44.1,647,40.12s4.18-11.88,12.26-15.86,10.58,1.1,18.66-2.88,6.54-6.11,13.9-11.3C698.91,5.07,700.68,4.73,709.31,7.32Z"/><path class="cls-6" d="M709.31,7.32c8.38,2.51,8.57,3.33,12.79,11s-7,13.84-2.81,21.5,15.57,1.42,19.79,9.09S730.79,63.45,735,71.12s19.33-.65,23.55,7,.81,9.57,5,17.26c4.35,8-2.65,11.79,1.65,19.85s.65,10,5,18.06,20.57-.64,24.88,7.42-8.18,14.72-3.87,22.78,4.63,7.88,8.94,15.94,16.37,1.61,20.68,9.66,3.45,8.52,7.75,16.57-2.1,11.48,2.21,19.54-5.59,13.34-1.28,21.39,19.76-.19,24.06,7.87-6.24,13.69-1.93,21.75,13.79,3,18.09,11,5,7.35,9.62,15.24c4.41,7.52,1.86,8.78,6.57,16.12s2,9,6.76,16.38,3.43,8.16,8.13,15.5,9.34,4.36,14,11.7,1.85,9.18,6.55,16.52,3.84,7.9,8.54,15.24,9,4.59,13.7,11.93-8.54,15.82-3.83,23.17,11.65,2.88,16.36,10.22,11.16,3.21,15.86,10.55-6,10.59-4.89,19.25,11.26,8.9,8.48,17.19-15.82,3.9-18.6,12.18-4.65,7.65-7.43,15.93,13.24,13.66,10.46,21.94-7.69,6.63-10.47,14.91-4.2,7.8-7,16.08,2.07,9.92-.71,18.2,0,9.2-2.82,17.48-18.43,3-21.21,11.3,13.14,13.63,10.36,21.91-4,7.88-6.78,16.16-11.36,5.4-14.14,13.68,8.17,12,5.39,20.24-19.91,2.53-22.69,10.82,9,12.24,6.23,20.53-9,6.12-12,14.35c-3.08,8.62-4,8.23-7.21,16.79s1.69,10.44-1.56,19-.89,9.46-4.14,18-13.38,4.72-16.63,13.28-2.62,8.8-5.87,17.36.34,9.93-2.91,18.49-5.54,7.7-8.79,16.26-4.59,8.18-7.67,16.81c-2.9,8.12-.74,9-3.47,17.16s6.63,11.29,3.9,19.48-9,6.09-11.72,14.27.67,9.31-2.06,17.49-1,8.76-3.72,16.94-9.91,5.79-12.64,14,5.47,10.91,2.74,19.09-7.82,6.49-10.54,14.67-9.27,6-12,14.19,10.47,12.58,7.74,20.76-3.64,6.38-12.26,6c-9.19-.46-5.28.08-8.81-8.42s1.5-10.57-2-19.07-1.32-9.41-4.85-17.91-9.59-6-13.11-14.49-2-9.12-5.56-17.62-2.49-8.92-6-17.42,3.52-11.42,0-19.92-14.72-3.86-18.24-12.36S705.57,909.45,702,901s11.69-15.54,7.23-23.59c-4.2-7.61-6.45-6.87-11.53-13.92s-5.47-6.77-10.56-13.82-7.73-5.14-12.81-12.2-10.42-3.2-15.51-10.25,4.27-13.79-.82-20.84-1.39-9.71-6.47-16.77S631.89,793,626.81,786s-.08-10.66-5.17-17.71,4.12-13.69-1-20.74S611,743.76,606,736.7s-9.53-3.89-14.44-11.07c-5.16-7.54,1.71-12-3.26-19.7s-15.71-.68-20.68-8.33-6.26-6.83-11.23-14.48,3-12.82-2-20.48-7.9-5.74-12.87-13.4,4.46-13.78-.52-21.44-14.74-1.31-19.71-9-3.92-8.34-8.9-16-5.26-7.47-10.23-15.12-.5-10.57-5.48-18.23-4.92-7.69-9.89-15.34-14.52-1.46-19.5-9.11,8.22-16.23,3.24-23.89-4.39-8-9.37-15.69-7.71-5.88-12.69-13.54-8.25-5.5-13.13-13.22-11-3.74-15.69-11.38-.14-10.43-4.83-18.07-7.64-5.84-12.33-13.48,6.35-14.41,1.66-22-8.79-5.13-13.48-12.77-10-4.38-14.69-12,2.81-12.25-1.88-19.89-3.91-8.12-8.6-15.76-4.91-7.51-9.6-15.15-13-2.52-17.73-10.16,4.42-13.23-.27-20.88-14.68-1.51-19.38-9.15,1-11.13-3.7-18.77-16-.72-20.66-8.36,3-12.38-1.68-20,3.16-12.46-1.53-20.11-16.32-1.17-13.81-9.78,7.36-.06,15.43-4,8.88-2.35,17-6.33,2.32-15.65,10.39-19.63,12.17,4.33,20.25.35,8.76-2.58,16.84-6.56,2.72-14.84,10.79-18.82,13.59,7.21,21.66,3.22,6.63-6.91,14.7-10.9,9.84-.4,17.91-4.38,2-16.23,10.11-20.21,11.07,2.09,19.14-1.89,9.81-.46,17.89-4.44,5.09-10,13.16-14,10.19.31,18.27-3.67,5.2-9.8,13.27-13.78,9.63-.83,17.7-4.81,8.49-3.15,16.56-7.13,8.74-2.64,16.81-6.62,3.86-12.53,11.93-16.51,12.6,5.18,20.67,1.2,7.2-5.76,15.27-9.75,12.88,5.75,21,1.77S638.92,44.1,647,40.12s4.18-11.88,12.26-15.86,10.58,1.1,18.66-2.88,6.54-6.11,13.9-11.3C698.91,5.07,700.68,4.73,709.31,7.32Z"/><path class="cls-7" d="M509,264.06s-7,13-19-10.5S448,182,504,179s57-6.41,60-17.21,5.7-30.62,30.87-38.72,46.17,7.1,45.16,27-34,31.92-31,47.92,26,1.49,31,24.26-73.43,56-89.23,45.36S509,264.06,509,264.06Z"/><path class="cls-7" d="M490,282.47c-41-14.4-51.83,40.58-27.41,53.61s7.8,47.49,35.11,46.76,58.13-6,70.23-18.87,24.08-22.42,13.59-35.15-40.3-4.26-51.4-25.5S490,282.47,490,282.47Z"/><path class="cls-7" d="M746.07,148.3s-8.47-32.7-24.27-31.5S682,135,689,163s-16.26,36.5-15.63,56.25S671,267,690,274s18,15,31,6,14-19.08,29.5-20.05,29,.71,32.24-10.63,10.74-17.83,0-30.08S751.14,192.6,746.07,148.3Z"/><path class="cls-8" d="M821,731.5c0,16.29-10.89,22.5-20,22.5s-13-6.21-13-22.5S798.89,707,808,707,821,715.21,821,731.5Z"/><ellipse class="cls-7" cx="729.5" cy="704" rx="14" ry="9.5" transform="translate(-130.95 1240.11) rotate(-75.91)"/><ellipse class="cls-7" cx="895.68" cy="500.2" rx="24.18" ry="19.88" transform="translate(-128.14 565.34) rotate(-32.82)"/><polygon class="cls-9" points="743.07 903.8 754.16 893 757 897 765.58 888.95 783 925 775.78 927.86 773.02 923.5 762.11 931.08 764.53 936.1 771 964.3 777.58 968.8 770.7 982.3 768.58 969.7 765.16 970 758.58 950.5 761.1 948.59 755 936 743.07 903.8"/></g><g id="Layer_4" data-name="Layer 4"><path class="cls-7" d="M711,644s17,21,5,24-46-8-65,5,1,59,22,64,35,1,43-10,12-21.2,13-36.6,5-40.4,9-40.4,10.07,85.2,3,90-37-6-46,15c-7.23,16.87,1,42,17,40s21-20,30-18,7,25.8,8.5,27.4S751,874,757,876s35,59,36,62,8-16,10-23-18.52-32.4-20.26-54.2-19.22-152.6-9.48-166.2S769.05,653.39,798,656c20,1.8.5,21.8,13,29s35,12,46,2,8-19.8,9-36,17-30,10-44-6-24-27-19-24-6-32,24c-4.92,18.46-37-10-31-19s18-28,33-36,23.8-22,41.4-34.5S896,491,910,488s30-17,30-17,3-23-13-19-53,25-59,30-51.2,47-57.1,45.5S809,525,798,526s-34.93,30.8-49,38-50,33-59,34-17,17-12,20,6.74,9.2-4.63,10.6S583,649,584,657s15,21,15,21a283.18,283.18,0,0,1,36.4-12.47C656,660,707,645,711,644Z"/><path class="cls-7" d="M580.06,474.16c9.24,25.15-10,37-31,46-19.8,8.49-50-19.72-50-46.52s-9-46.52,39-48.52C559.57,424.24,571.05,449.65,580.06,474.16Z"/><path class="cls-7" d="M636.69,554.28c4.34,26.43,12.34,47.12-8.92,50.61-52.3,8.59-63.71-11.54-68-38s11-40.82,32.25-44.31S629.64,511.35,636.69,554.28Z"/><path class="cls-7" d="M722.5,533c0,26.79-17.46,40.5-39,40.5s-39-13.71-39-40.5-5-60.5,39-48.5C704.28,490.17,722.5,506.21,722.5,533Z"/><path class="cls-7" d="M764.55,364.91C773.89,390,771.19,406.49,751,414s-50.22,3.2-59.55-21.91S686.81,348.51,707,341,755.22,339.8,764.55,364.91Z"/><path class="cls-7" d="M841.35,327.4C846.23,353.74,843,374,818,380c-20.94,5-48.47-12.06-53.35-38.4S763.82,300.92,785,297,836.47,301.06,841.35,327.4Z"/><path class="cls-7" d="M888,429c0,26.79,3,37-37,41-21.43,2.14-36-9.71-36-36.5s1-40.5,39-48.5C875.08,380.56,888,402.21,888,429Z"/><path class="cls-7" d="M804,444.79C820.25,466.05,826,509,788,514c-21.36,2.81-29.67-.52-46-21.79S738.9,445.1,756,432,787.67,423.52,804,444.79Z"/><path class="cls-7" d="M666.1,426.64c6,44.52-19,52.52-43,52.52s-43.52-27.54-39-50c4-20,14.48-44,38.52-44S663,403.91,666.1,426.64Z"/><polygon class="cls-9" points="772.02 629.94 774.2 663 802.54 663 804 627.85 792.44 626.51 792.78 639.91 784.78 641.13 783.2 626.51 772.02 629.94"/><polygon class="cls-9" points="869.18 563 866 569.54 891.69 581 897 567.09 869.18 563"/></g><g id="Layer_1" data-name="Layer 1"><path class="cls-10" d="M933.75,461.12S864,485,797,560s-84,67-140,85-69.58,20.53-69.58,20.53"/><path class="cls-10" d="M810.9,242.51S673,329,667,332,446.33,439,446.33,439"/><path class="cls-11" d="M782.74,575.51S651,376.26,640,345.13,600,269,594,255"/><path class="cls-10" d="M746.07,609.36S749,689,754,710s16,131,11,146,35.45,75.09,35.45,75.09"/><path class="cls-12" d="M1232.5-22.5l-32.58,51.19S1127.36,155,1124.53,166.28s-24.5,77.28-43.35,96.13-41.47,5.65-66.91,55.6-98.95,257.28-98.95,263.88-99,299.68-99,299.68S771.13,1022,770.18,1026.7c0,0-22.68,55.8-26.68,60.8"/><path class="cls-12" d="M948.5,484.5s-133-242-136-249-108-213-108-213"/><line class="cls-12" x1="761.3" y1="135.97" x2="1021.5" y2="-31.5"/><line class="cls-12" x1="815.32" y1="242.51" x2="1218.6" y2="-31.5"/><path class="cls-12" d="M792-22.5s-638.5,338-657.5,346-144,62-162,65"/><line class="cls-13" x1="777.5" y1="1067.5" x2="777.68" y2="1067.04"/><path class="cls-14" d="M779.16,1063.32,848.5,888.5s28-95,53-126,57-144,57-144l147-335s135.55-273.19,155.76-304"/><circle class="cls-15" cx="194.2" cy="727.77" r="107.83"/><path class="cls-16" d="M140.55,735.79a16.81,16.81,0,0,1-7.89-2.26,18.13,18.13,0,0,1-6-5.91l6.89-6.2a12.19,12.19,0,0,0,6,5,11.18,11.18,0,0,0,7.54-.13q5-1.69,7-4.77a7.73,7.73,0,0,0,.63-7l-.92-2.72a7.43,7.43,0,0,0-2.92-4,9.41,9.41,0,0,0-4.52-1.45,58.57,58.57,0,0,0-6.47,0h-.17l-.17,0-.55.05a54.65,54.65,0,0,1-9.3-.1,14.68,14.68,0,0,1-7.1-2.93q-3.37-2.5-5.3-8.16l-.62-1.82a18,18,0,0,1-.85-9.5,14.5,14.5,0,0,1,4.38-7.66,25.12,25.12,0,0,1,9.34-5.3,20.55,20.55,0,0,1,8.2-1.19,15.54,15.54,0,0,1,7.12,2.32,19.18,19.18,0,0,1,5.73,5.67l-6.62,6.15a12.89,12.89,0,0,0-5.47-4.75,8.5,8.5,0,0,0-6.22-.17q-4.84,1.65-6.76,4.65a7.63,7.63,0,0,0-.6,6.87l.67,2a7.13,7.13,0,0,0,3,4,10.37,10.37,0,0,0,4.61,1.41,59,59,0,0,0,6.77,0l.42,0a1.53,1.53,0,0,0,.37,0,3.1,3.1,0,0,1,.42,0,3.1,3.1,0,0,0,.42,0,49.9,49.9,0,0,1,8.73.29,14.1,14.1,0,0,1,6.73,3q3.18,2.46,5,7.86l1,2.84a17.66,17.66,0,0,1,.8,9.57,14.77,14.77,0,0,1-4.53,7.71,26.22,26.22,0,0,1-9.51,5.36A25.23,25.23,0,0,1,140.55,735.79Z"/><path class="cls-16" d="M269.23,702l6.76,4.34-35.23,54.93-7.06-4.53,26.53-41.37-1,2.76-31.14,23.27-5-3.2L230.77,701l2.67-2.76-26.52,41.36-7.18-4.6L235,680.05l6.88,4.41-9,44.11Z"/><path class="cls-16" d="M116.21,773.5l8.6-2L139.88,835l-8.6,2Zm18.76,54,13-3.08c3.11-.74,5.32-2.14,6.61-4.2s1.58-4.62.86-7.67l-6.66-28q-1.08-4.57-4.21-6.47t-7.79-.78l-13,3.08-1.94-8.17,12.71-3a23.14,23.14,0,0,1,10.63-.31,14.85,14.85,0,0,1,7.85,4.62,20.68,20.68,0,0,1,4.52,9.23l6.53,27.51a20.63,20.63,0,0,1,.1,10.26,14.79,14.79,0,0,1-5,7.68,23.19,23.19,0,0,1-9.66,4.51l-12.66,3Z"/><path class="cls-16" d="M212,815.89l-.73,15.24a24,24,0,0,1-2.84,10.8,16.57,16.57,0,0,1-7,6.81,20.22,20.22,0,0,1-10.34,2,22,22,0,0,1-10.27-2.82,16.05,16.05,0,0,1-6.45-7,21.51,21.51,0,0,1-1.86-10.42l1.26-26.63A24.13,24.13,0,0,1,176.62,793a16.66,16.66,0,0,1,7-6.81,20.24,20.24,0,0,1,10.34-2,19.94,19.94,0,0,1,9.62,2.7,16.21,16.21,0,0,1,6.15,6.9A25.5,25.5,0,0,1,212,804.52l-9.51-.45a15.38,15.38,0,0,0-1.24-6,9,9,0,0,0-3.12-3.81,8.75,8.75,0,0,0-4.58-1.45A10.16,10.16,0,0,0,188,794a9.35,9.35,0,0,0-3.76,4,15.11,15.11,0,0,0-1.54,6.26l-1.26,26.63a12.19,12.19,0,0,0,1,5.76,9,9,0,0,0,3.48,3.91,11.29,11.29,0,0,0,5.54,1.59A10.38,10.38,0,0,0,197,841a9.13,9.13,0,0,0,3.76-3.89,14.71,14.71,0,0,0,1.55-6.28l.33-7-10.26-.48.4-8.39Z"/><path class="cls-16" d="M239.6,764.84l8.42,2.7-20,62.13-8.42-2.7Zm4.23,1.36,29.06,9.33-2.57,8-29.06-9.33Zm-8.77,27.3,25.64,8.24-2.55,7.94-25.64-8.23Zm-8.61,26.84,29.05,9.33-2.56,8-29.06-9.33Z"/><path class="cls-16" d="M277.42,714.52l7.85-.06,25.26,50-1.25,1.17-.36-51.38,8.62-.06.46,65.2-8,.06-25.12-48.88,1.21-1.17.35,50.22-8.57.06Z"/><path class="cls-16" d="M198,702.31l-6.63-4.13,17.85-65.74,8.08,5-15.74,51.73,39.44-37,8.08,5ZM228.36,671l-22.79-14.17L210,649.7l22.79,14.18Z"/><rect class="cls-16" x="238.45" y="581.73" width="8.07" height="85.3" transform="translate(375.43 -32.11) rotate(32.67)"/><path class="cls-16" d="M226.09,757.84l-.72,7.77-66.78,13.46.88-9.47,53.3-9.08L162.05,741.8l.88-9.47Zm-41.6-13.1L182,771.46l-8.31-.77L176.18,744Z"/><rect class="cls-16" x="135.35" y="709.31" width="8.07" height="85.3" transform="matrix(-0.13, 0.99, -0.99, -0.13, 903.15, 712.76)"/><path class="cls-16" d="M185.12,685.56l-6.72,4-50.14-46.12,8.18-4.85,38.67,37.78-14.67-52,8.18-4.86ZM171.25,644.2l-23.07,13.71-4.26-7.18L167,637Z"/><rect class="cls-16" x="133.49" y="571.54" width="8.07" height="85.3" transform="translate(-293.99 156) rotate(-30.66)"/><path class="cls-11" d="M796.56,364.06C797.13,376.82,797,386,792,395c-10.61,19.09-16,18-91,55"/><path class="cls-11" d="M762.79,272.64s11.63,14.79,21.27,37.95"/><path class="cls-11" d="M676.12,409.34S710.6,393,717.3,388.5"/><path class="cls-11" d="M594.48,368.76S608.29,398.3,612,404"/><path class="cls-11" d="M507.48,411.76S521.29,441.3,525,447"/><path class="cls-11" d="M794.86,505.12c-6.19,14.18-16.49,27.69-32.75,39"/><path class="cls-11" d="M789,400s25,23,6,57"/><path class="cls-11" d="M875.63,441.94c14.41,5.66,26.65,9.57,32.77,9.59C930,451.63,841,494,806,489"/><path class="cls-11" d="M789,400c3.16,2.77,19.24,11.38,38.8,20.8"/><path class="cls-11" d="M495,239s-17.4,29-55.2,41S370,311.69,370,311.69"/><path class="cls-11" d="M548,361.41c6.59,5.37,12.41,11.67,16,20.09"/><path class="cls-11" d="M443.79,280s9.93,5.82,22.24,14"/><path class="cls-12" d="M319.62,227S562.5,637.5,593.5,673.5s134,187,132,200S773,1017.25,773,1017.25"/><rect class="cls-17" x="584" y="185.33" width="51" height="13.08"/><path class="cls-18" d="M588.12,195.72a2.32,2.32,0,0,1-1-1,3.48,3.48,0,0,1-.33-1.58V191a3.48,3.48,0,0,1,.33-1.58,2.26,2.26,0,0,1,1-1,3.13,3.13,0,0,1,1.52-.35,2.74,2.74,0,0,1,1.32.32,2.56,2.56,0,0,1,1,.92,4.06,4.06,0,0,1,.52,1.46h-1.52a2,2,0,0,0-.27-.66,1.23,1.23,0,0,0-.43-.42,1.17,1.17,0,0,0-.58-.15,1.39,1.39,0,0,0-.7.17,1.13,1.13,0,0,0-.44.5,1.67,1.67,0,0,0-.16.78v2.14a1.67,1.67,0,0,0,.16.78,1.05,1.05,0,0,0,.44.49,1.39,1.39,0,0,0,.7.17,1.21,1.21,0,0,0,.58-.14,1.26,1.26,0,0,0,.44-.42,2,2,0,0,0,.26-.66h1.52a4,4,0,0,1-.53,1.45,2.64,2.64,0,0,1-.95.93,2.74,2.74,0,0,1-1.32.31A3.13,3.13,0,0,1,588.12,195.72Z"/><path class="cls-18" d="M595.7,188.17h.93l3,7.81H598l-1.87-5.33L594.29,196h-1.58Zm-1.56,5.14h4.11v1.42h-4.11Z"/><path class="cls-18" d="M605.5,188.17h1.94V196H606.1v-6.06l0,.34-1.49,4.85h-1.3l-1.49-4.74,0-.45V196h-1.34v-7.81h1.94l1.49,5.27Z"/><path class="cls-18" d="M609.16,188.17h1.47V196h-1.47Zm.67,3.36h2.5a.88.88,0,0,0,.46-.12.79.79,0,0,0,.31-.34,1,1,0,0,0,.12-.5,1.13,1.13,0,0,0-.11-.51.84.84,0,0,0-.32-.35.88.88,0,0,0-.46-.12h-2.5v-1.42h2.46a2.66,2.66,0,0,1,1.28.3,2.2,2.2,0,0,1,.87.84,2.78,2.78,0,0,1,0,2.51,2.2,2.2,0,0,1-.87.84,2.77,2.77,0,0,1-1.28.29h-2.46Z"/><path class="cls-18" d="M617.31,196h-1.52v-7.81h1.52Z"/><path class="cls-18" d="M618.93,188.17h1.8l2.9,6-.13.14v-6.13h1.41V196H623.1l-2.9-5.9.13-.14v6h-1.4Z"/><path class="cls-18" d="M632.18,191.62v1.52a3.26,3.26,0,0,1-.35,1.53,2.42,2.42,0,0,1-1,1,3,3,0,0,1-1.49.36,3.2,3.2,0,0,1-1.51-.34,2.53,2.53,0,0,1-1-1,3,3,0,0,1-.35-1.45V191a3.14,3.14,0,0,1,.35-1.53,2.54,2.54,0,0,1,1-1,3.14,3.14,0,0,1,2.78-.07,2.65,2.65,0,0,1,1,.81,3,3,0,0,1,.54,1.22h-1.59a1.08,1.08,0,0,0-.27-.43,1.36,1.36,0,0,0-.43-.27,1.54,1.54,0,0,0-.52-.09,1.31,1.31,0,0,0-.69.17,1.15,1.15,0,0,0-.46.49,1.54,1.54,0,0,0-.17.73v2.3a1.26,1.26,0,0,0,.17.65,1.15,1.15,0,0,0,.47.43,1.61,1.61,0,0,0,.71.15,1.42,1.42,0,0,0,.7-.17,1.16,1.16,0,0,0,.46-.47,1.72,1.72,0,0,0,.16-.74V193h-1.18v-1.41Z"/><rect class="cls-17" x="681" y="638.33" width="51" height="13.08"/><path class="cls-18" d="M683.09,641.17h1.47V649h-1.47Zm.54,0h4.59v1.42h-4.59Zm0,3.29h4v1.42h-4Z"/><path class="cls-18" d="M690.44,648.72a2.26,2.26,0,0,1-1-1,3.46,3.46,0,0,1-.34-1.57v-5h1.48v5a1.45,1.45,0,0,0,.36,1,1.36,1.36,0,0,0,1,.37,1.42,1.42,0,0,0,1-.37,1.45,1.45,0,0,0,.36-1v-5h1.47v5a3.34,3.34,0,0,1-.34,1.57,2.32,2.32,0,0,1-1,1,3.25,3.25,0,0,1-1.55.34A3.21,3.21,0,0,1,690.44,648.72Z"/><path class="cls-18" d="M697.76,649h-1.52v-7.81h1.52Z"/><path class="cls-18" d="M699.37,641.17h1.47V649h-1.47Zm.54,0h4.59v1.42h-4.59Zm0,3.29h4v1.42h-4Z"/><path class="cls-18" d="M705,641.17h5.72v1.42H705Zm2.13.64h1.47V649h-1.47Z"/><path class="cls-18" d="M711.62,641.17h1.48V649h-1.48Zm.54,0h4.7v1.42h-4.7Zm0,3.22h4.1v1.42h-4.1Zm0,3.17h4.7V649h-4.7Z"/><path class="cls-18" d="M718.2,641.17H720l2.9,6-.13.13v-6.12h1.41V649h-1.81l-2.89-5.9.13-.13v6H718.2Z"/><path class="cls-18" d="M725.26,641.17H731v1.42h-5.72Zm2.12.64h1.47V649h-1.47Z"/><rect class="cls-17" x="670" y="693.33" width="38" height="13.08"/><path class="cls-18" d="M676.5,696.17h1.94V704h-1.33v-6.06l0,.34-1.49,4.85h-1.3l-1.5-4.74.06-.45V704h-1.34v-7.81h1.94l1.49,5.27Z"/><path class="cls-18" d="M682.29,696.17h.93l3,7.81h-1.59l-1.86-5.33L680.89,704H679.3Zm-1.55,5.14h4.1v1.42h-4.1Z"/><path class="cls-18" d="M687.18,696.17h1.47V704h-1.47Zm.58,3.25h2.72a.77.77,0,0,0,.4-.11.75.75,0,0,0,.26-.32,1.07,1.07,0,0,0,.1-.49,1.21,1.21,0,0,0-.09-.48.72.72,0,0,0-.27-.32.68.68,0,0,0-.4-.12h-2.72v-1.41h2.84a2.11,2.11,0,0,1,1.13.29,1.89,1.89,0,0,1,.76.82,2.91,2.91,0,0,1,0,2.45,2,2,0,0,1-.76.82,2.24,2.24,0,0,1-1.13.29h-2.84Zm1.64,1.18,1.58-.25,2.1,3.63H691.3Z"/><path class="cls-18" d="M694.35,696.17h1.47V704h-1.47Zm.88,4.76,3.13-4.76h1.86l-4.8,6.67Zm1.3-.9,1.27-.8,2.74,4.75H698.8Z"/><path class="cls-18" d="M700.76,696.17h5.72v1.42h-5.72Zm2.13.64h1.47V704h-1.47Z"/><rect class="cls-17" x="683.89" y="764.45" width="62" height="13.08" transform="translate(-148.39 170.79) rotate(-12.35)"/><path class="cls-18" d="M687.48,773.21l1.44-.32,1.67,7.63-1.44.32Zm1.89,4.46,2-5.32,1.81-.4L690,779.49Zm1.07-1.16,1.07-1.06,3.7,4.06-1.71.37Z"/><path class="cls-18" d="M696.56,771.22l.91-.2,4.59,7-1.55.34-3-4.81-.69,5.61-1.55.34Zm-.42,5.35,4-.88.3,1.39-4,.88Z"/><path class="cls-18" d="M706.13,769.12l1.9-.41,1.67,7.63-1.31.28-1.29-5.92.12.32-.42,5.06-1.27.28L703.06,772l0-.45,1.3,5.93-1.31.28-1.67-7.63,1.9-.41,2.58,4.82Z"/><path class="cls-18" d="M709.71,768.34l1.44-.32,1.67,7.63-1.44.32Zm1.37,3.14,2.44-.53a.88.88,0,0,0,.43-.22,1,1,0,0,0,.24-.4,1.14,1.14,0,0,0,0-.52,1.18,1.18,0,0,0-.22-.48.79.79,0,0,0-.38-.27.87.87,0,0,0-.48,0l-2.44.53-.31-1.38,2.41-.53a2.67,2.67,0,0,1,1.32,0,2.1,2.1,0,0,1,1,.63,2.49,2.49,0,0,1,.57,1.16,2.58,2.58,0,0,1,0,1.3,2.25,2.25,0,0,1-.67,1,2.69,2.69,0,0,1-1.19.56l-2.4.53Z"/><path class="cls-18" d="M715.61,767.05l1.48-.33,2.74,4.74.5-5.45,1.48-.32-.87,8.18-1.12.25Z"/><path class="cls-18" d="M725.38,772.63a2.26,2.26,0,0,1-1.16-.76,3.4,3.4,0,0,1-.66-1.46l-1.07-4.87,1.44-.32,1.08,4.91a1.39,1.39,0,0,0,.57.94,1.56,1.56,0,0,0,2-.44,1.41,1.41,0,0,0,.13-1.09l-1.07-4.91,1.44-.31,1.06,4.87a3.33,3.33,0,0,1,0,1.6,2.2,2.2,0,0,1-.74,1.18,3.61,3.61,0,0,1-3,.66Z"/><path class="cls-18" d="M732.22,771.14a2.3,2.3,0,0,1-1.17-.76,3.44,3.44,0,0,1-.66-1.47L729.33,764l1.43-.31,1.08,4.9a1.44,1.44,0,0,0,.57,1,1.41,1.41,0,0,0,1.07.14,1.35,1.35,0,0,0,.92-.58,1.39,1.39,0,0,0,.13-1.1l-1.07-4.9,1.44-.32,1.06,4.87a3.37,3.37,0,0,1,0,1.61,2.27,2.27,0,0,1-.74,1.18,3.31,3.31,0,0,1-1.44.66A3.2,3.2,0,0,1,732.22,771.14Z"/><path class="cls-18" d="M736.37,762.5l1.43-.32,1.68,7.64-1.44.31Zm1.26,3,2.66-.58a.64.64,0,0,0,.36-.2.66.66,0,0,0,.19-.37,1.18,1.18,0,0,0-.2-.94.69.69,0,0,0-.33-.26.7.7,0,0,0-.41,0l-2.66.59-.3-1.39,2.77-.61a2.3,2.3,0,0,1,1.17,0,2,2,0,0,1,.91.64,2.73,2.73,0,0,1,.53,1.14,2.68,2.68,0,0,1,0,1.26,2,2,0,0,1-.57,1,2.2,2.2,0,0,1-1,.53l-2.77.61Zm1.86.8,1.49-.58,2.83,3.1-1.74.38Z"/><rect class="cls-17" x="705" y="729.33" width="70" height="13.08"/><path class="cls-18" d="M707.35,732.17h1.47V740h-1.47Zm.58,3.25h2.72a.77.77,0,0,0,.4-.11.75.75,0,0,0,.26-.32,1.07,1.07,0,0,0,.1-.49,1.21,1.21,0,0,0-.09-.48.66.66,0,0,0-.27-.32.68.68,0,0,0-.4-.12h-2.72v-1.41h2.84a2.09,2.09,0,0,1,1.13.29,1.89,1.89,0,0,1,.76.82,2.91,2.91,0,0,1,0,2.45,2,2,0,0,1-.76.82,2.24,2.24,0,0,1-1.13.29h-2.84Zm1.65,1.18,1.57-.25,2.1,3.63h-1.78Z"/><path class="cls-18" d="M715.5,739.72a2.26,2.26,0,0,1-1-1,3.46,3.46,0,0,1-.33-1.57v-5h1.47v5a1.45,1.45,0,0,0,.36,1,1.36,1.36,0,0,0,1,.37,1.38,1.38,0,0,0,1-.37,1.42,1.42,0,0,0,.37-1v-5h1.47v5a3.34,3.34,0,0,1-.34,1.57,2.32,2.32,0,0,1-1,1,3.25,3.25,0,0,1-1.55.34A3.21,3.21,0,0,1,715.5,739.72Z"/><path class="cls-18" d="M722.66,740a5.43,5.43,0,0,1-1-.33,4.4,4.4,0,0,1-.84-.52l.68-1.22a3.13,3.13,0,0,0,1,.57,3.53,3.53,0,0,0,1.21.2,2.19,2.19,0,0,0,1.12-.24.76.76,0,0,0,.39-.69h0a.67.67,0,0,0-.17-.49,1.08,1.08,0,0,0-.47-.27,4.19,4.19,0,0,0-.73-.15h0l-.12,0a7.33,7.33,0,0,1-1.3-.31,1.87,1.87,0,0,1-.88-.65,2.12,2.12,0,0,1-.36-1.32h0a2.35,2.35,0,0,1,.34-1.3,2.15,2.15,0,0,1,1-.82,4,4,0,0,1,1.56-.28,3.67,3.67,0,0,1,.86.1,4.54,4.54,0,0,1,.86.28,5.11,5.11,0,0,1,.79.44l-.62,1.24a4.46,4.46,0,0,0-1-.48,2.92,2.92,0,0,0-.94-.17,2.05,2.05,0,0,0-1,.22.71.71,0,0,0-.37.63h0a.73.73,0,0,0,.2.54,1.11,1.11,0,0,0,.47.28,5.94,5.94,0,0,0,.81.2h.08l.06,0h.06a6.5,6.5,0,0,1,1.24.35,1.92,1.92,0,0,1,.83.67,2,2,0,0,1,.34,1.25h0a2.29,2.29,0,0,1-.35,1.28,2.18,2.18,0,0,1-1,.81,4.11,4.11,0,0,1-1.61.28A5.6,5.6,0,0,1,722.66,740Z"/><path class="cls-18" d="M727,732.17h5.73v1.42H727Zm2.13.64h1.47V740h-1.47Z"/><path class="cls-18" d="M735,740h-1.53v-7.81H735Z"/><path class="cls-18" d="M742.16,735.62v1.52a3.26,3.26,0,0,1-.35,1.53,2.42,2.42,0,0,1-1,1,3,3,0,0,1-1.49.36,3.2,3.2,0,0,1-1.51-.34,2.53,2.53,0,0,1-1-1,3,3,0,0,1-.35-1.45V735a3.14,3.14,0,0,1,.35-1.53,2.58,2.58,0,0,1,1-1,3,3,0,0,1,1.5-.36,3,3,0,0,1,1.29.29,2.65,2.65,0,0,1,1,.81,3,3,0,0,1,.54,1.22h-1.59a1.08,1.08,0,0,0-.27-.43,1.36,1.36,0,0,0-.43-.27,1.54,1.54,0,0,0-.52-.09,1.31,1.31,0,0,0-.69.17,1.15,1.15,0,0,0-.46.49,1.54,1.54,0,0,0-.17.73v2.3a1.26,1.26,0,0,0,.17.65,1.15,1.15,0,0,0,.47.43,1.61,1.61,0,0,0,.71.15,1.42,1.42,0,0,0,.7-.17,1.16,1.16,0,0,0,.46-.47,1.72,1.72,0,0,0,.16-.74V737h-1.18v-1.41Z"/><path class="cls-18" d="M743.61,732.17h1.47V740h-1.47Zm.53,0h4.7v1.42h-4.7Zm0,3.22h4.11v1.42h-4.11Zm0,3.17h4.7V740h-4.7Z"/><path class="cls-18" d="M753.14,732.17h1.47V740h-1.47Zm.65,6.39h2.49a1.16,1.16,0,0,0,.78-.24.88.88,0,0,0,.28-.69h0a1,1,0,0,0-.13-.51.81.81,0,0,0-.36-.32,1.41,1.41,0,0,0-.57-.11h-2.49v-1.41h2.49a1,1,0,0,0,.7-.23.86.86,0,0,0,.25-.66.7.7,0,0,0-.25-.58,1,1,0,0,0-.7-.21h-2.49v-1.42h2.54a3,3,0,0,1,1.29.25,1.83,1.83,0,0,1,.82.73,2.24,2.24,0,0,1,.28,1.14,1.79,1.79,0,0,1-.18.81,1.52,1.52,0,0,1-.53.57,2.06,2.06,0,0,1-.82.31,2.19,2.19,0,0,1,.88.31,1.72,1.72,0,0,1,.56.64,2.14,2.14,0,0,1,.19.91h0a2.28,2.28,0,0,1-.28,1.15,1.8,1.8,0,0,1-.83.73,3,3,0,0,1-1.29.25h-2.63Z"/><path class="cls-18" d="M762.31,732.17h.94l3,7.81h-1.59l-1.87-5.33L760.91,740h-1.58Zm-1.55,5.14h4.11v1.42h-4.11Z"/><path class="cls-18" d="M767.2,732.17h1.47V740H767.2Zm.59,3.25h2.71a.72.72,0,0,0,.4-.11.71.71,0,0,0,.27-.32,1.42,1.42,0,0,0,.1-.49,1.06,1.06,0,0,0-.1-.48.7.7,0,0,0-.26-.32.71.71,0,0,0-.41-.12h-2.71v-1.41h2.83a2.15,2.15,0,0,1,1.14.29,1.93,1.93,0,0,1,.75.82,2.91,2.91,0,0,1,0,2.45,2,2,0,0,1-.76.82,2.18,2.18,0,0,1-1.13.29h-2.83Zm1.64,1.18,1.57-.25,2.11,3.63h-1.78Z"/><rect class="cls-17" x="814" y="661.33" width="43" height="13.08"/><path class="cls-18" d="M816.59,664.17h1.47V672h-1.47Zm.67,3.36h2.49a.91.91,0,0,0,.47-.12.79.79,0,0,0,.31-.34,1,1,0,0,0,.12-.5,1.21,1.21,0,0,0-.11-.52.87.87,0,0,0-.32-.34.89.89,0,0,0-.47-.12h-2.49v-1.42h2.46a2.66,2.66,0,0,1,1.28.3,2.2,2.2,0,0,1,.87.84,2.78,2.78,0,0,1,0,2.51,2.2,2.2,0,0,1-.87.84,2.77,2.77,0,0,1-1.28.29h-2.46Z"/><path class="cls-18" d="M824.52,671.71a2.56,2.56,0,0,1-1-1,3.1,3.1,0,0,1-.35-1.52V667a3.06,3.06,0,0,1,.35-1.51,2.49,2.49,0,0,1,1-1,3.28,3.28,0,0,1,3,0,2.46,2.46,0,0,1,1,1,3.18,3.18,0,0,1,.35,1.51v2.21a3.22,3.22,0,0,1-.35,1.52,2.52,2.52,0,0,1-1,1,3.37,3.37,0,0,1-3,0Zm2.2-1.29a1.12,1.12,0,0,0,.46-.48,1.53,1.53,0,0,0,.16-.72v-2.29a1.53,1.53,0,0,0-.16-.72,1.18,1.18,0,0,0-.46-.48,1.45,1.45,0,0,0-.7-.17,1.42,1.42,0,0,0-.7.17,1.12,1.12,0,0,0-.46.48,1.53,1.53,0,0,0-.17.72v2.29a1.53,1.53,0,0,0,.17.72,1.07,1.07,0,0,0,.46.48,1.42,1.42,0,0,0,.7.17A1.45,1.45,0,0,0,826.72,670.42Z"/><path class="cls-18" d="M830.32,664.17h1.47V672h-1.47Zm.74,6.39h1.88a1.62,1.62,0,0,0,1.12-.35,1.25,1.25,0,0,0,.4-1v-2.3a1.26,1.26,0,0,0-.4-1,1.67,1.67,0,0,0-1.12-.35h-1.88v-1.42h1.84a3.86,3.86,0,0,1,1.67.33,2.33,2.33,0,0,1,1,1A3,3,0,0,1,836,667v2.21a2.86,2.86,0,0,1-.35,1.47,2.33,2.33,0,0,1-1,1,3.68,3.68,0,0,1-1.7.35h-1.84Z"/><path class="cls-18" d="M838.85,672h-1.53v-7.81h1.53Z"/><path class="cls-18" d="M841.66,671.72a2.26,2.26,0,0,1-1-1,3.34,3.34,0,0,1-.34-1.57v-5h1.47v5a1.5,1.5,0,0,0,.36,1,1.59,1.59,0,0,0,2,0,1.46,1.46,0,0,0,.37-1v-5h1.47v5a3.34,3.34,0,0,1-.34,1.57,2.29,2.29,0,0,1-1,1,3.66,3.66,0,0,1-3.08,0Z"/><path class="cls-18" d="M852.48,664.17h1.93V672h-1.33v-6.06l0,.34-1.49,4.85h-1.3l-1.5-4.74.06-.45V672h-1.34v-7.81h1.94l1.49,5.27Z"/><polygon class="cls-9" points="692.45 606.85 684 589 702 582 712 598 692.45 606.85"/><polygon class="cls-9" points="716.1 582 722.5 591.4 766.2 563.32 760.57 552.25 716.1 582"/><polygon class="cls-9" points="800 525 814 515 824 521.61 808.38 536 800 525"/></g></svg>