<svg xmlns="http://www.w3.org/2000/svg"
    xmlns:xlink="http://www.w3.org/1999/xlink" width="417px" height="530px">
    <defs>
        <filter filterUnits="userSpaceOnUse" id="Filter_0" x="0px" y="0px" width="417px" height="530px">
            <feOffset in="SourceAlpha" dx="0" dy="22" />
            <feGaussianBlur result="blurOut" stdDeviation="4.69" />
            <feFlood flood-color="rgb(20, 19, 15)" result="floodOut" />
            <feComposite operator="atop" in="floodOut" in2="blurOut" />
            <feComponentTransfer>
                <feFuncA type="linear" slope="0.35"/>
            </feComponentTransfer>
            <feMerge>
                <feMergeNode/>
                <feMergeNode in="SourceGraphic"/>
            </feMerge>
        </filter>

    </defs>
    <g filter="url(#Filter_0)">
        <path fill-rule="evenodd" fill="rgb(252, 238, 29)" d="M380.723,370.413 L341.240,292.157 L341.240,370.413 L326.875,370.413 L326.875,261.32 L340.36,261.32 L379.670,341.20 L379.670,261.32 L394.110,261.32 L394.110,370.413 L380.723,370.413 ZM292.539,183.73 L314.255,241.349 L306.763,247.868 L253.626,219.619 L301.330,274.542 L290.546,283.927 L218.801,201.323 L229.130,192.334 L295.804,227.679 L270.278,156.525 L280.437,147.684 L352.183,230.287 L341.569,239.523 L292.539,183.73 ZM259.446,128.707 L277.297,111.540 L290.937,119.804 L206.260,196.446 L195.66,189.663 L223.639,79.28 L237.279,87.293 L230.361,111.84 L239.54,116.351 L311.280,0.557 L322.758,7.731 L250.631,123.366 L259.446,128.707 ZM226.315,125.0 L211.957,174.378 L249.5,138.748 L226.315,125.0 ZM159.65,240.997 L113.634,136.164 L129.467,134.286 L138.627,157.306 L147.803,156.217 L132.655,27.385 L146.93,25.802 L161.241,154.623 L172.389,153.300 L175.920,128.775 L191.753,126.897 L172.60,239.456 L159.65,240.997 ZM143.984,170.770 L162.996,218.547 L170.324,167.645 L143.984,170.770 ZM89.644,181.780 C86.82,180.868 82.627,181.269 79.278,182.981 C74.189,185.584 70.824,188.700 69.185,192.328 C67.545,195.956 67.765,199.804 69.840,203.870 L71.414,206.954 C72.920,209.903 74.921,211.895 77.420,212.928 C79.918,213.962 82.579,214.377 85.402,214.171 C88.224,213.968 91.965,213.407 96.621,212.491 C96.867,212.422 97.97,212.375 97.309,212.351 C97.521,212.327 97.730,212.292 97.931,212.244 C98.177,212.175 98.406,212.128 98.619,212.104 C98.831,212.80 99.61,212.34 99.307,211.963 C105.16,210.903 109.865,210.368 113.857,210.355 C117.848,210.343 121.804,211.448 125.725,213.669 C129.646,215.891 133.55,219.840 135.952,225.515 L138.244,230.7 C141.28,235.460 142.232,240.690 141.862,245.698 C141.491,250.706 139.603,255.336 136.197,259.585 C132.792,263.833 127.964,267.557 121.714,270.753 C116.534,273.403 111.519,274.965 106.669,275.446 C101.819,275.928 97.278,275.304 93.48,273.578 C88.818,271.853 85.14,269.64 81.641,265.210 L91.594,253.273 C94.967,257.14 98.692,259.294 102.769,260.111 C106.847,260.929 111.4,260.253 115.247,258.83 C120.471,255.412 123.935,252.217 125.641,248.499 C127.346,244.782 127.138,240.843 125.17,236.687 L122.827,232.397 C121.344,229.492 119.409,227.495 117.23,226.404 C114.637,225.313 112.21,224.876 109.175,225.92 C106.330,225.308 102.757,225.838 98.460,226.683 C98.347,226.686 98.253,226.691 98.174,226.702 C98.95,226.714 98.0,226.721 97.888,226.722 L96.982,226.932 C90.871,228.197 85.720,228.887 81.528,229.2 C77.335,229.117 73.179,228.60 69.56,225.828 C64.932,223.597 61.354,219.509 58.321,213.565 L56.849,210.683 C54.90,205.276 52.861,200.84 53.166,195.110 C53.469,190.136 55.280,185.547 58.596,181.343 C61.911,177.141 66.650,173.462 72.811,170.311 C77.366,167.982 81.805,166.671 86.130,166.374 C90.455,166.79 94.576,166.789 98.493,168.506 C102.409,170.222 106.30,172.907 109.359,176.559 L99.842,188.358 C96.605,184.886 93.206,182.693 89.644,181.780 ZM81.247,288.870 C83.779,293.512 85.45,299.120 85.45,305.695 L85.45,353.121 C85.45,359.646 83.779,365.241 81.247,369.908 C78.715,374.576 75.30,378.114 70.192,380.523 C65.353,382.932 59.525,384.137 52.707,384.137 L36.11,384.137 L30.897,384.137 L21.196,384.137 L21.196,274.680 L30.897,274.680 L36.11,274.680 L52.782,274.680 C59.600,274.680 65.416,275.884 70.229,278.293 C75.42,280.702 78.715,284.229 81.247,288.870 ZM70.4,305.243 C70.4,299.974 68.550,295.909 65.642,293.48 C62.734,290.187 58.597,288.757 53.234,288.757 L36.11,288.757 L36.11,370.59 L53.234,370.59 C58.597,370.59 62.734,368.629 65.642,365.768 C68.550,362.908 70.4,358.843 70.4,353.573 L70.4,305.243 ZM109.392,374.638 L93.798,371.312 L148.653,271.97 L161.452,273.826 L170.738,387.719 L155.144,384.394 L153.877,359.648 L143.334,357.400 L110.761,485.380 L97.649,482.36 L130.90,354.575 L120.625,352.557 L109.392,374.638 ZM153.136,345.174 L150.508,293.813 L127.195,339.642 L153.136,345.174 ZM179.695,261.816 C180.224,254.810 181.985,248.816 184.976,243.833 C187.966,238.850 191.992,235.154 197.51,232.743 C202.110,230.333 207.914,229.375 214.464,229.871 C220.763,230.348 226.93,232.9 230.454,234.856 C234.814,237.704 238.136,241.654 240.419,246.708 C242.702,251.763 243.806,257.786 243.730,264.775 L227.832,263.572 C227.827,259.646 227.227,256.279 226.31,253.470 C224.835,250.662 223.152,248.485 220.981,246.935 C218.810,245.387 216.275,244.503 213.375,244.284 C209.875,244.19 206.764,244.602 204.42,246.31 C201.319,247.461 199.157,249.625 197.555,252.523 C195.954,255.422 195.0,258.898 194.694,262.951 L191.326,307.540 C191.50,311.193 191.522,314.425 192.743,317.235 C193.964,320.46 195.843,322.290 198.381,323.966 C200.920,325.643 203.988,326.617 207.588,326.890 C211.88,327.155 214.183,326.609 216.875,325.252 C219.567,323.897 221.726,321.782 223.350,318.910 C224.975,316.39 225.943,312.551 226.253,308.447 L227.137,296.737 L209.964,295.437 L211.24,281.400 L243.196,283.835 L241.268,309.357 C240.739,316.364 238.979,322.358 235.988,327.341 C232.997,332.323 228.972,336.20 223.912,338.430 C218.853,340.840 213.49,341.798 206.499,341.302 C199.850,340.799 194.162,339.60 189.433,336.85 C184.706,333.111 181.214,329.72 178.960,323.968 C176.706,318.865 175.828,313.11 176.327,306.405 L179.695,261.816 ZM273.153,294.398 L316.925,294.398 L316.925,308.476 L273.153,308.476 L273.153,342.502 L310.908,342.502 L310.908,356.504 L273.153,356.504 L273.153,389.778 L316.925,389.778 L316.925,403.855 L273.153,403.855 L265.782,403.855 L258.337,403.855 L258.337,294.398 L265.782,294.398 L273.153,294.398 Z"/>
    </g>
</svg>